<?xml version="1.0" encoding="UTF-8" standalone="no"?>
<!-- Created with Inkscape (http://www.inkscape.org/) -->

<svg
   width="2560"
   height="1400"
   viewBox="0 0 677.33333 370.41665"
   version="1.1"
   id="svg1"
   xml:space="preserve"
   inkscape:version="1.4.2 (2aeb623e1d, 2025-05-12)"
   sodipodi:docname="beebea_home_hero.svg"
   inkscape:export-filename="../8e0b8016/home-hero.png"
   inkscape:export-xdpi="96"
   inkscape:export-ydpi="96"
   xmlns:inkscape="http://www.inkscape.org/namespaces/inkscape"
   xmlns:sodipodi="http://sodipodi.sourceforge.net/DTD/sodipodi-0.dtd"
   xmlns:xlink="http://www.w3.org/1999/xlink"
   xmlns="http://www.w3.org/2000/svg"
   xmlns:svg="http://www.w3.org/2000/svg"><sodipodi:namedview
     id="namedview1"
     pagecolor="#ffffff"
     bordercolor="#000000"
     borderopacity="0.25"
     inkscape:showpageshadow="2"
     inkscape:pageopacity="0.0"
     inkscape:pagecheckerboard="0"
     inkscape:deskcolor="#d1d1d1"
     inkscape:document-units="mm"
     inkscape:zoom="0.70234375"
     inkscape:cx="1280"
     inkscape:cy="748.92102"
     inkscape:window-width="2560"
     inkscape:window-height="1018"
     inkscape:window-x="0"
     inkscape:window-y="0"
     inkscape:window-maximized="1"
     inkscape:current-layer="layer1" /><defs
     id="defs1"><linearGradient
       id="linearGradient1"
       inkscape:collect="always"><stop
         style="stop-color:#a500b6;stop-opacity:1;"
         offset="0"
         id="stop1" /><stop
         style="stop-color:#0300ff;stop-opacity:1;"
         offset="0.2543605"
         id="stop5" /><stop
         style="stop-color:#0135ff;stop-opacity:0.27983153;"
         offset="0.58392859"
         id="stop6" /><stop
         style="stop-color:#007aff;stop-opacity:0;"
         offset="1"
         id="stop2" /></linearGradient><linearGradient
       id="linearGradient85"
       inkscape:collect="always"><stop
         style="stop-color:#ebeae6;stop-opacity:1;"
         offset="0.42523009"
         id="stop86" /><stop
         style="stop-color:#3d34b9;stop-opacity:0.36461326;"
         offset="1"
         id="stop85" /></linearGradient><linearGradient
       id="linearGradient8"><stop
         style="stop-color:#e9a4f3;stop-opacity:1;"
         offset="0.12919973"
         id="stop72" /><stop
         style="stop-color:#000ca4;stop-opacity:1;"
         offset="1"
         id="stop73" /></linearGradient><linearGradient
       id="linearGradient8-1"><stop
         style="stop-color:#e9a4f3;stop-opacity:1;"
         offset="0.19116926"
         id="stop8" /><stop
         style="stop-color:#000ca4;stop-opacity:1;"
         offset="0.81422645"
         id="stop9" /></linearGradient><linearGradient
       id="linearGradient3"
       inkscape:collect="always"><stop
         style="stop-color:#0010a8;stop-opacity:1;"
         offset="0"
         id="stop3" /><stop
         style="stop-color:#007aff;stop-opacity:1;"
         offset="1"
         id="stop4" /></linearGradient><radialGradient
       inkscape:collect="always"
       xlink:href="#linearGradient3"
       id="radialGradient4"
       cx="106.98984"
       cy="61.811554"
       fx="106.98984"
       fy="61.811554"
       r="25.590466"
       gradientTransform="matrix(1,0,0,0.64466194,2.156459,24.143097)"
       gradientUnits="userSpaceOnUse" /><radialGradient
       inkscape:collect="always"
       xlink:href="#linearGradient8"
       id="radialGradient9"
       cx="107.05613"
       cy="65.188187"
       fx="107.05613"
       fy="65.188187"
       r="3.0672071"
       gradientTransform="matrix(1,0,0,1.2919464,2.156459,-16.852357)"
       gradientUnits="userSpaceOnUse" /><filter
       inkscape:label="Soft Focus Lens"
       inkscape:menu="Image Effects"
       inkscape:menu-tooltip="Glowing image content without blurring it"
       style="color-interpolation-filters:sRGB"
       id="filter36"
       x="-0.35297892"
       y="-0.5350857"
       width="1.7059207"
       height="2.0701177"><feGaussianBlur
         stdDeviation="7.754327"
         result="result3"
         id="feGaussianBlur34" /><feColorMatrix
         values="1 0 0 0 0 0 1 0 0 0 0 0 1 0 0 0 0 0 50 0 "
         result="result7"
         id="feColorMatrix34" /><feComposite
         operator="in"
         in2="SourceGraphic"
         result="result9"
         id="feComposite34" /><feComposite
         in2="result7"
         operator="arithmetic"
         in="result9"
         k1="0.5"
         k3="0.5"
         result="result1"
         id="feComposite35"
         k2="0"
         k4="0" /><feBlend
         in2="result1"
         result="result5"
         mode="screen"
         in="SourceGraphic"
         id="feBlend35" /><feBlend
         in2="result5"
         mode="darken"
         in="result5"
         result="result6"
         id="feBlend36" /><feComposite
         in2="SourceGraphic"
         operator="in"
         result="result8"
         id="feComposite36" /></filter><filter
       inkscape:label="Blur"
       inkscape:menu="Image Effects"
       inkscape:menu-tooltip="Glowing image content without blurring it"
       style="color-interpolation-filters:sRGB"
       id="filter39"
       x="-0.71089871"
       y="-1.0776662"
       width="2.4217974"
       height="3.1553323"><feGaussianBlur
         stdDeviation="15.174351"
         result="result3"
         id="feGaussianBlur36" /><feColorMatrix
         values="1 0 0 0 0 0 1 0 0 0 0 0 1 0 0 0 0 0 50 0 "
         result="result7"
         id="feColorMatrix36" /><feComposite
         operator="in"
         in2="SourceGraphic"
         result="result9"
         id="feComposite37" /><feComposite
         in2="result7"
         operator="arithmetic"
         in="result9"
         k1="0.5"
         k3="0.5"
         result="result1"
         id="feComposite38"
         k2="0"
         k4="0" /><feBlend
         in2="result1"
         result="result5"
         mode="screen"
         in="SourceGraphic"
         id="feBlend38" /><feBlend
         in2="result5"
         mode="darken"
         in="result5"
         result="result6"
         id="feBlend39" /><feComposite
         in2="SourceGraphic"
         operator="in"
         result="fbSourceGraphic"
         id="feComposite39" /><feColorMatrix
         result="fbSourceGraphicAlpha"
         in="fbSourceGraphic"
         values="0 0 0 -1 0 0 0 0 -1 0 0 0 0 -1 0 0 0 0 1 0"
         id="feColorMatrix71" /><feGaussianBlur
         id="feGaussianBlur71"
         stdDeviation="0.5 0.5"
         result="blur"
         in="fbSourceGraphic" /></filter><linearGradient
       inkscape:collect="always"
       xlink:href="#linearGradient3"
       id="linearGradient80"
       x1="109.30924"
       y1="50.963123"
       x2="109.35937"
       y2="54.170677"
       gradientUnits="userSpaceOnUse" /><filter
       inkscape:collect="always"
       style="color-interpolation-filters:sRGB"
       id="filter80"
       x="-0.014005836"
       y="-0.021725862"
       width="1.0280117"
       height="1.0434517"><feGaussianBlur
         inkscape:collect="always"
         stdDeviation="0.29867989"
         id="feGaussianBlur80" /></filter><filter
       inkscape:collect="always"
       style="color-interpolation-filters:sRGB"
       id="filter81"
       x="-0.088113316"
       y="-0.067882722"
       width="1.1762266"
       height="1.1357654"><feGaussianBlur
         inkscape:collect="always"
         stdDeviation="0.22043407"
         id="feGaussianBlur81" /></filter><radialGradient
       inkscape:collect="always"
       xlink:href="#linearGradient85"
       id="radialGradient87"
       cx="107.09769"
       cy="54.065056"
       fx="107.09769"
       fy="54.065056"
       r="5.2935429"
       gradientTransform="matrix(1.7571017,0.91961689,-0.58843329,1.1243128,-49.270168,-105.20709)"
       gradientUnits="userSpaceOnUse"
       spreadMethod="pad" /><radialGradient
       inkscape:collect="always"
       xlink:href="#linearGradient1"
       id="radialGradient2"
       cx="338.66666"
       cy="185.20833"
       fx="338.66666"
       fy="185.20833"
       r="338.73279"
       gradientTransform="matrix(1,0,0,0.54696349,0,83.906136)"
       gradientUnits="userSpaceOnUse" /></defs><g
     inkscape:label="Layer 1"
     inkscape:groupmode="layer"
     id="layer1"><rect
       style="opacity:0.398374;fill:url(#radialGradient2);fill-rule:evenodd;stroke:#ffffff;stroke-width:0.132292;stroke-miterlimit:3.9;stroke-opacity:0.415314"
       id="rect1"
       width="677.33331"
       height="370.41666"
       x="0"
       y="0"
       ry="2.6717386" /><g
       id="g1"
       transform="matrix(3.4347568,0,0,3.4347568,-36.232325,-34.790603)"><path
         id="path36"
         d="m 109.59646,81.445099 c 0.15662,-0.07036 0.43946,-0.29342 0.60668,-0.47845 0.0812,-0.08986 0.2051,-0.16326 0.41136,-0.24372 0.16234,-0.06332 0.36746,-0.14748 0.45581,-0.18701 0.0884,-0.03954 0.19278,-0.08545 0.23206,-0.10204 1.5834,-0.66894 1.4073,-0.56797 1.9738,-1.1316 0.27185,-0.2705 0.91667,-0.90952 1.4329,-1.42 0.51626,-0.51052 0.96903,-0.97085 1.0062,-1.023 0.082,-0.11504 0.0847,-0.2 0.0123,-0.38101 -0.0918,-0.22938 -0.33757,-0.36839 -0.80157,-0.45331 -0.14726,-0.02695 -0.37217,-0.07253 -0.4998,-0.10129 -0.58162,-0.13105 -1.105,-0.24256 -1.2816,-0.27309 -0.224,-0.03871 -0.43185,-0.1018 -0.49186,-0.14929 -0.0314,-0.02481 -0.0205,-0.07583 0.0426,-0.20062 0.0919,-0.18188 0.20148,-0.27095 0.29624,-0.24088 0.0331,0.01051 0.18876,0.04376 0.34584,0.07389 0.2715,0.05207 0.46621,0.09149 1.0353,0.2096 0.54435,0.11298 0.82744,0.17399 0.96391,0.20775 0.0785,0.01943 0.28242,0.04339 0.45306,0.05325 0.27718,0.01602 0.32591,0.0091 0.45695,-0.06451 0.21762,-0.12231 0.31204,-0.31606 0.43143,-0.8853 0.0338,-0.1613 0.0955,-0.38493 0.21517,-0.78035 0.0373,-0.12313 0.0678,-0.24864 0.0678,-0.2789 0,-0.03025 0.0223,-0.13033 0.0495,-0.22238 0.0272,-0.09205 0.085,-0.30391 0.12836,-0.47081 0.0434,-0.1669 0.10037,-0.37575 0.12665,-0.46411 0.0548,-0.1845 0.14726,-0.53607 0.21586,-0.8211 0.12593,-0.52325 0.16228,-0.66462 0.18361,-0.71401 0.0127,-0.02946 0.0433,-0.14191 0.068,-0.2499 0.0247,-0.108 0.0792,-0.32416 0.12101,-0.48037 0.0872,-0.32559 0.0744,-0.4672 -0.0565,-0.62272 -0.14172,-0.16842 -0.35747,-0.232 -0.70422,-0.20753 -0.16176,0.01142 -0.40629,0.04452 -0.54344,0.07356 -0.13712,0.02906 -0.47424,0.09525 -0.74913,0.14713 -0.27489,0.05188 -0.5721,0.10888 -0.66045,0.12669 -0.1884,0.03796 -0.31235,-0.02732 -0.36783,-0.19378 -0.0595,-0.17847 0.003,-0.20439 0.83193,-0.34398 0.24543,-0.04135 0.5346,-0.09178 0.6426,-0.11208 0.108,-0.0203 0.32487,-0.05838 0.48196,-0.08462 0.15708,-0.02625 0.34698,-0.06572 0.422,-0.08774 0.19006,-0.05577 0.40807,-0.26241 0.45304,-0.4294 0.041,-0.15222 0.002,-0.39331 -0.079,-0.49201 -0.0272,-0.03296 -0.0863,-0.13221 -0.13153,-0.22057 -0.0452,-0.08836 -0.12627,-0.24098 -0.18014,-0.33915 -0.0539,-0.09817 -0.15679,-0.28923 -0.22869,-0.42455 -0.20236,-0.38085 -0.17214,-0.44245 0.12248,-0.24968 0.10617,0.06947 0.2304,0.14121 0.27607,0.15944 0.0456,0.01823 0.15007,0.07837 0.23205,0.13367 0.082,0.0553 0.37393,0.23284 0.64883,0.39453 0.27489,0.16169 0.52389,0.30818 0.55335,0.32552 0.0295,0.01735 0.16601,0.08552 0.30345,0.1515 0.13744,0.06599 0.36236,0.17848 0.4998,0.24999 0.39556,0.20579 1.1102,0.52681 1.1736,0.52716 0.0221,1.22e-4 0.0883,0.0255 0.14729,0.05642 0.21138,0.11092 0.93352,0.31514 1.428,0.40384 1.6841,0.3021 3.0102,-0.09421 4.2248,-1.2626 0.30094,-0.2895 0.80097,-0.90246 1.0333,-1.2667 0.0696,-0.10901 0.1692,-0.26246 0.22149,-0.341 0.1807,-0.27142 0.85501,-1.5829 0.90862,-1.7672 0.0142,-0.04909 0.08,-0.22581 0.14594,-0.3927 0.30516,-0.77177 0.50934,-1.3107 0.52751,-1.3923 0.0109,-0.04909 0.0433,-0.16154 0.072,-0.2499 0.0287,-0.08836 0.11208,-0.35343 0.18537,-0.58905 0.21428,-0.68901 0.29719,-0.92011 0.34622,-0.96501 0.0742,-0.06797 0.74476,-0.52413 1.2598,-0.85705 0.17672,-0.11422 0.40967,-0.26709 0.51766,-0.33972 0.10799,-0.07263 0.3811,-0.2535 0.6069,-0.40193 0.22581,-0.14843 0.51332,-0.34722 0.6389,-0.44175 0.12559,-0.09453 0.31837,-0.23382 0.4284,-0.30952 0.11004,-0.07571 0.30984,-0.24439 0.444,-0.37485 0.28089,-0.27314 0.77353,-0.84693 0.77353,-0.90096 0,-0.02012 0.0462,-0.09588 0.10272,-0.16836 0.15994,-0.20517 0.41971,-0.73831 0.56868,-1.1671 0.17966,-0.51714 0.23434,-0.9176 0.2315,-1.6958 -0.002,-0.40252 -0.0195,-0.80415 -0.04,-0.89251 -0.0896,-0.38585 -0.12457,-0.50384 -0.25943,-0.87466 -0.2241,-0.61618 -0.57482,-1.1986 -1.0222,-1.6976 -0.24384,-0.27193 -0.76792,-0.73424 -0.98242,-0.86665 -0.63451,-0.39166 -1.1869,-0.61617 -1.8932,-0.76941 -0.44353,-0.09623 -1.5749,-0.10954 -1.9095,-0.02246 -0.11261,0.02931 -0.47785,0.11825 -0.81165,0.19764 -0.62425,0.14848 -1.1914,0.30453 -2.0528,0.56483 -0.12764,0.03857 -0.35254,0.10475 -0.49981,0.14706 -0.14726,0.04232 -0.33201,0.09785 -0.41056,0.1234 -0.0785,0.02555 -0.27132,0.0827 -0.4284,0.127 -0.15708,0.04429 -0.43951,0.13484 -0.62763,0.20121 -0.18812,0.06637 -0.3568,0.12122 -0.37485,0.12188 -0.0181,6.79e-4 -0.0971,0.03225 -0.17563,0.07019 -0.0785,0.03793 -0.15851,0.06953 -0.1777,0.07019 -0.0192,6.79e-4 -0.17985,0.05872 -0.35701,0.12902 -0.17715,0.07029 -0.37833,0.14894 -0.44705,0.17476 -0.19985,0.07509 -0.55669,0.22856 -1.0174,0.43761 -0.23563,0.1069 -0.47661,0.21614 -0.53551,0.24276 -0.0589,0.02661 -0.23222,0.10552 -0.38513,0.17534 -0.15294,0.06982 -0.28631,0.12694 -0.29639,0.12694 -0.067,0 -1.6961,0.80893 -2.2281,1.1064 -0.14726,0.08235 -0.29988,0.16426 -0.33915,0.18204 -0.0393,0.01777 -0.0955,0.04758 -0.12496,0.06624 -0.0295,0.01866 -0.27846,0.16404 -0.55335,0.32307 -0.27489,0.15903 -0.59619,0.35142 -0.71401,0.42753 -0.82681,0.53419 -1.122,0.69039 -1.1872,0.62823 -0.005,-0.0047 0.0229,-0.21608 0.0621,-0.46964 0.16432,-1.0646 0.021,-2.4707 -0.33808,-3.317 -0.025,-0.0589 -0.0889,-0.21764 -0.14203,-0.35273 -0.34475,-0.87675 -1.1887,-1.9878 -1.9292,-2.5397 -0.0786,-0.05854 -0.18297,-0.1433 -0.23206,-0.18835 -0.0491,-0.04505 -0.17536,-0.13341 -0.28061,-0.19635 -0.10524,-0.06294 -0.24983,-0.14939 -0.3213,-0.19212 -0.22707,-0.13574 -0.76491,-0.39325 -0.98675,-0.47244 -0.11781,-0.04205 -0.24634,-0.09054 -0.2856,-0.10774 -0.0978,-0.04288 -0.58252,-0.16605 -0.92822,-0.2359 -0.354,-0.07153 -1.5776,-0.10871 -1.9278,-0.05857 -0.47089,0.06742 -0.92225,0.15294 -0.98535,0.18671 -0.0347,0.01858 -0.0906,0.03377 -0.12402,0.03377 -0.0335,0 -0.12693,0.03015 -0.20763,0.06701 -0.0807,0.03685 -0.2431,0.10263 -0.36091,0.14616 -0.82715,0.30564 -1.7038,0.89139 -2.3405,1.5638 -0.41447,0.43773 -0.51484,0.56068 -0.76434,0.93623 -0.2175,0.32737 -0.69722,1.2709 -0.69722,1.3713 0,0.03376 -0.0175,0.09408 -0.0389,0.13405 -0.0576,0.10759 -0.1929,0.60729 -0.26909,0.99366 -0.0982,0.49808 -0.0967,1.9104 0.002,2.3833 0.0862,0.41119 0.0628,0.452 -0.17613,0.30677 -0.0921,-0.05597 -0.23426,-0.13929 -0.31593,-0.18517 -0.0817,-0.04587 -0.25292,-0.15202 -0.38055,-0.23589 -0.41908,-0.27538 -0.62023,-0.40039 -0.96391,-0.59908 -0.36745,-0.21242 -0.949095,-0.53579 -1.035305,-0.57559 -0.0294,-0.01359 -0.2142,-0.11225 -0.410549,-0.21924 -0.38857,-0.21173 -0.75053,-0.39267 -1.249497,-0.62463 -0.17672,-0.08215 -0.43376,-0.20305 -0.57121,-0.26867 -0.13744,-0.06562 -0.35347,-0.16219 -0.48006,-0.21461 -0.12659,-0.05241 -0.3756,-0.16372 -0.55336,-0.24733 -0.17775,-0.08361 -0.44368,-0.20451 -0.59094,-0.26865 -0.14727,-0.06414 -0.28382,-0.12837 -0.30346,-0.14273 -0.01963,-0.01437 -0.25258,-0.10341 -0.51765,-0.19788 -0.26508,-0.09448 -0.49722,-0.1852 -0.51587,-0.20163 -0.01866,-0.01643 -0.05639,-0.02987 -0.08385,-0.02987 -0.02746,0 -0.10056,-0.02337 -0.16244,-0.05196 -0.06187,-0.02857 -0.17676,-0.07422 -0.2553,-0.10143 -0.38805,-0.13443 -0.6969,-0.23689 -0.87461,-0.29012 -0.35769,-0.10716 -0.65682,-0.19555 -0.96391,-0.28485 -0.1669,-0.04853 -0.47214,-0.13796 -0.67831,-0.19872 -0.20617,-0.06077 -0.48731,-0.1436 -0.62476,-0.18406 -0.13745,-0.04047 -0.3222,-0.09523 -0.41055,-0.1217 -0.31578,-0.09459 -0.69868,-0.18956 -0.84944,-0.2107 -0.08431,-0.01182 -0.1807,-0.03589 -0.2142,-0.05348 -0.09416,-0.04945 -0.67689,-0.17368 -0.93557,-0.19945 -0.55043,-0.05483 -1.3974,-0.0048 -1.8386,0.10856 -1.3647,0.35074 -2.499,1.1669 -3.2198,2.3167 -0.29075,0.46382 -0.60055,1.2428 -0.68982,1.7346 -0.02317,0.12763 -0.05569,0.30435 -0.07228,0.3927 -0.05159,0.2748 -0.03897,1.1223 0.0217,1.4573 0.13225,0.73043 0.37471,1.4062 0.67475,1.8807 0.34562,0.54655 0.37385,0.58272 0.83575,1.071 0.33756,0.35684 1.0365,0.89239 1.6774,1.2852 0.08177,0.05013 1.281,0.84142 1.647,1.0868 0.54105,0.36268 0.74323,0.50688 0.79558,0.56742 0.02825,0.03266 0.12792,0.31644 0.22149,0.6306 0.21531,0.72291 0.40218,1.2943 0.57206,1.7493 0.07331,0.19635 0.17719,0.47749 0.23085,0.62476 0.14157,0.38857 0.78879,1.7709 0.89426,1.91 0.01489,0.01965 0.05893,0.09193 0.09785,0.16065 0.79218,1.3987 1.8856,2.4807 2.9294,2.8986 0.63722,0.25516 0.78355,0.28321 1.5858,0.30403 0.66187,0.01718 0.77578,0.01139 1.071,-0.05446 0.1817,-0.04053 0.3866,-0.08342 0.45532,-0.09531 0.16868,-0.02921 0.90725,-0.26133 1.1067,-0.34783 0.0884,-0.03832 0.19278,-0.08357 0.23205,-0.10056 0.0393,-0.017 0.17583,-0.07259 0.30345,-0.12355 0.310887,-0.12414 0.330847,-0.13429 1.479996,-0.75308 0.925435,-0.4983 1.613805,-0.89074 1.845805,-1.0522 0.16268,-0.11325 0.18246,-0.01555 0.0511,0.25254 -0.1193,0.24356 -0.39421,0.76832 -0.53793,1.0268 -0.16675,0.29992 -0.1594,0.48376 0.0277,0.6941 0.14351,0.1613 0.37379,0.24089 1.0067,0.34792 0.25526,0.04316 0.54444,0.09369 0.64261,0.11227 0.0981,0.01857 0.32309,0.0561 0.49981,0.08337 0.32231,0.04972 0.49518,0.10006 0.57712,0.16806 0.0342,0.02839 0.027,0.07148 -0.0327,0.19429 -0.0838,0.17247 -0.14304,0.19128 -0.38398,0.1219 -0.0686,-0.01974 -0.26128,-0.06101 -0.42818,-0.09169 -0.16689,-0.03069 -0.47213,-0.08774 -0.67831,-0.12681 -1.0209,-0.19349 -1.2967,-0.16755 -1.5267,0.14359 -0.1079,0.14594 -0.10417,0.37562 0.0123,0.75606 0.0506,0.16545 0.14626,0.5177 0.2125,0.78277 0.0662,0.26508 0.17745,0.6908 0.24716,0.94606 0.0697,0.25526 0.15237,0.56853 0.18369,0.69616 0.0313,0.12763 0.0741,0.28828 0.0951,0.357 0.021,0.06872 0.0581,0.21331 0.0824,0.3213 0.0243,0.10799 0.1118,0.43733 0.19433,0.73186 0.0825,0.29453 0.17224,0.63636 0.19936,0.75963 0.0668,0.30348 0.14856,0.44937 0.31516,0.56211 0.2716,0.18379 0.44849,0.16861 1.9125,-0.16413 0.18653,-0.0424 0.4516,-0.09865 0.58905,-0.12503 0.40776,-0.07824 0.77204,-0.15653 0.7974,-0.17137 0.0619,-0.03621 0.18497,0.0601 0.2854,0.22332 0.13665,0.22208 0.11137,0.26007 -0.21411,0.32179 -0.12435,0.02358 -0.3064,0.06547 -0.40458,0.09307 -0.18396,0.05174 -0.52721,0.12753 -0.96391,0.21284 -0.47613,0.09301 -1.0165,0.22961 -1.1398,0.28816 -0.14559,0.06909 -0.29866,0.25659 -0.3276,0.40129 -0.0402,0.20103 0.0663,0.33944 0.84867,1.1029 0.41888,0.40874 0.85924,0.83969 0.9786,0.95766 0.82689,0.81727 1.2113,1.1684 1.3456,1.2292 0.083,0.03755 0.3277,0.14274 0.54369,0.23376 0.21599,0.09101 0.42483,0.17986 0.46411,0.19745 0.0994,0.04449 0.97234,0.40672 1.1246,0.46662 0.0688,0.02704 0.24067,0.15644 0.38208,0.28754 0.33127,0.30709 0.56214,0.42091 0.85731,0.42264 0.13469,9.41e-4 0.275,-0.02254 0.357,-0.05938 z"
         fill="#4f00ff"
         style="display:inline;fill:#eee9d6;fill-opacity:1;stroke:none;stroke-width:0.999875;stroke-dasharray:none;stroke-opacity:1;filter:url(#filter39)"
         inkscape:label="logo_outline_glow" /><path
         id="logo_outline"
         d="m 109.59646,81.445099 c 0.15662,-0.07036 0.43946,-0.29342 0.60668,-0.47845 0.0812,-0.08986 0.2051,-0.16326 0.41136,-0.24372 0.16234,-0.06332 0.36746,-0.14748 0.45581,-0.18701 0.0884,-0.03954 0.19278,-0.08545 0.23206,-0.10204 1.5834,-0.66894 1.4073,-0.56797 1.9738,-1.1316 0.27185,-0.2705 0.91667,-0.90952 1.4329,-1.42 0.51626,-0.51052 0.96903,-0.97085 1.0062,-1.023 0.082,-0.11504 0.0847,-0.2 0.0123,-0.38101 -0.0918,-0.22938 -0.33757,-0.36839 -0.80157,-0.45331 -0.14726,-0.02695 -0.37217,-0.07253 -0.4998,-0.10129 -0.58162,-0.13105 -1.105,-0.24256 -1.2816,-0.27309 -0.224,-0.03871 -0.43185,-0.1018 -0.49186,-0.14929 -0.0314,-0.02481 -0.0205,-0.07583 0.0426,-0.20062 0.0919,-0.18188 0.20148,-0.27095 0.29624,-0.24088 0.0331,0.01051 0.18876,0.04376 0.34584,0.07389 0.2715,0.05207 0.46621,0.09149 1.0353,0.2096 0.54435,0.11298 0.82744,0.17399 0.96391,0.20775 0.0785,0.01943 0.28242,0.04339 0.45306,0.05325 0.27718,0.01602 0.32591,0.0091 0.45695,-0.06451 0.21762,-0.12231 0.31204,-0.31606 0.43143,-0.8853 0.0338,-0.1613 0.0955,-0.38493 0.21517,-0.78035 0.0373,-0.12313 0.0678,-0.24864 0.0678,-0.2789 0,-0.03025 0.0223,-0.13033 0.0495,-0.22238 0.0272,-0.09205 0.085,-0.30391 0.12836,-0.47081 0.0434,-0.1669 0.10037,-0.37575 0.12665,-0.46411 0.0548,-0.1845 0.14726,-0.53607 0.21586,-0.8211 0.12593,-0.52325 0.16228,-0.66462 0.18361,-0.71401 0.0127,-0.02946 0.0433,-0.14191 0.068,-0.2499 0.0247,-0.108 0.0792,-0.32416 0.12101,-0.48037 0.0872,-0.32559 0.0744,-0.4672 -0.0565,-0.62272 -0.14172,-0.16842 -0.35747,-0.232 -0.70422,-0.20753 -0.16176,0.01142 -0.40629,0.04452 -0.54344,0.07356 -0.13712,0.02906 -0.47424,0.09525 -0.74913,0.14713 -0.27489,0.05188 -0.5721,0.10888 -0.66045,0.12669 -0.1884,0.03796 -0.31235,-0.02732 -0.36783,-0.19378 -0.0595,-0.17847 0.003,-0.20439 0.83193,-0.34398 0.24543,-0.04135 0.5346,-0.09178 0.6426,-0.11208 0.108,-0.0203 0.32487,-0.05838 0.48196,-0.08462 0.15708,-0.02625 0.34698,-0.06572 0.422,-0.08774 0.19006,-0.05577 0.40807,-0.26241 0.45304,-0.4294 0.041,-0.15222 0.002,-0.39331 -0.079,-0.49201 -0.0272,-0.03296 -0.0863,-0.13221 -0.13153,-0.22057 -0.0452,-0.08836 -0.12627,-0.24098 -0.18014,-0.33915 -0.0539,-0.09817 -0.15679,-0.28923 -0.22869,-0.42455 -0.20236,-0.38085 -0.17214,-0.44245 0.12248,-0.24968 0.10617,0.06947 0.2304,0.14121 0.27607,0.15944 0.0456,0.01823 0.15007,0.07837 0.23205,0.13367 0.082,0.0553 0.37393,0.23284 0.64883,0.39453 0.27489,0.16169 0.52389,0.30818 0.55335,0.32552 0.0295,0.01735 0.16601,0.08552 0.30345,0.1515 0.13744,0.06599 0.36236,0.17848 0.4998,0.24999 0.39556,0.20579 1.1102,0.52681 1.1736,0.52716 0.0221,1.22e-4 0.0883,0.0255 0.14729,0.05642 0.21138,0.11092 0.93352,0.31514 1.428,0.40384 1.6841,0.3021 3.0102,-0.09421 4.2248,-1.2626 0.30094,-0.2895 0.80097,-0.90246 1.0333,-1.2667 0.0696,-0.10901 0.1692,-0.26246 0.22149,-0.341 0.1807,-0.27142 0.85501,-1.5829 0.90862,-1.7672 0.0142,-0.04909 0.08,-0.22581 0.14594,-0.3927 0.30516,-0.77177 0.50934,-1.3107 0.52751,-1.3923 0.0109,-0.04909 0.0433,-0.16154 0.072,-0.2499 0.0287,-0.08836 0.11208,-0.35343 0.18537,-0.58905 0.21428,-0.68901 0.29719,-0.92011 0.34622,-0.96501 0.0742,-0.06797 0.74476,-0.52413 1.2598,-0.85705 0.17672,-0.11422 0.40967,-0.26709 0.51766,-0.33972 0.10799,-0.07263 0.3811,-0.2535 0.6069,-0.40193 0.22581,-0.14843 0.51332,-0.34722 0.6389,-0.44175 0.12559,-0.09453 0.31837,-0.23382 0.4284,-0.30952 0.11004,-0.07571 0.30984,-0.24439 0.444,-0.37485 0.28089,-0.27314 0.77353,-0.84693 0.77353,-0.90096 0,-0.02012 0.0462,-0.09588 0.10272,-0.16836 0.15994,-0.20517 0.41971,-0.73831 0.56868,-1.1671 0.17966,-0.51714 0.23434,-0.9176 0.2315,-1.6958 -0.002,-0.40252 -0.0195,-0.80415 -0.04,-0.89251 -0.0896,-0.38585 -0.12457,-0.50384 -0.25943,-0.87466 -0.2241,-0.61618 -0.57482,-1.1986 -1.0222,-1.6976 -0.24384,-0.27193 -0.76792,-0.73424 -0.98242,-0.86665 -0.63451,-0.39166 -1.1869,-0.61617 -1.8932,-0.76941 -0.44353,-0.09623 -1.5749,-0.10954 -1.9095,-0.02246 -0.11261,0.02931 -0.47785,0.11825 -0.81165,0.19764 -0.62425,0.14848 -1.1914,0.30453 -2.0528,0.56483 -0.12764,0.03857 -0.35254,0.10475 -0.49981,0.14706 -0.14726,0.04232 -0.33201,0.09785 -0.41056,0.1234 -0.0785,0.02555 -0.27132,0.0827 -0.4284,0.127 -0.15708,0.04429 -0.43951,0.13484 -0.62763,0.20121 -0.18812,0.06637 -0.3568,0.12122 -0.37485,0.12188 -0.0181,6.79e-4 -0.0971,0.03225 -0.17563,0.07019 -0.0785,0.03793 -0.15851,0.06953 -0.1777,0.07019 -0.0192,6.79e-4 -0.17985,0.05872 -0.35701,0.12902 -0.17715,0.07029 -0.37833,0.14894 -0.44705,0.17476 -0.19985,0.07509 -0.55669,0.22856 -1.0174,0.43761 -0.23563,0.1069 -0.47661,0.21614 -0.53551,0.24276 -0.0589,0.02661 -0.23222,0.10552 -0.38513,0.17534 -0.15294,0.06982 -0.28631,0.12694 -0.29639,0.12694 -0.067,0 -1.6961,0.80893 -2.2281,1.1064 -0.14726,0.08235 -0.29988,0.16426 -0.33915,0.18204 -0.0393,0.01777 -0.0955,0.04758 -0.12496,0.06624 -0.0295,0.01866 -0.27846,0.16404 -0.55335,0.32307 -0.27489,0.15903 -0.59619,0.35142 -0.71401,0.42753 -0.82681,0.53419 -1.122,0.69039 -1.1872,0.62823 -0.005,-0.0047 0.0229,-0.21608 0.0621,-0.46964 0.16432,-1.0646 0.021,-2.4707 -0.33808,-3.317 -0.025,-0.0589 -0.0889,-0.21764 -0.14203,-0.35273 -0.34475,-0.87675 -1.1887,-1.9878 -1.9292,-2.5397 -0.0786,-0.05854 -0.18297,-0.1433 -0.23206,-0.18835 -0.0491,-0.04505 -0.17536,-0.13341 -0.28061,-0.19635 -0.10524,-0.06294 -0.24983,-0.14939 -0.3213,-0.19212 -0.22707,-0.13574 -0.76491,-0.39325 -0.98675,-0.47244 -0.11781,-0.04205 -0.24634,-0.09054 -0.2856,-0.10774 -0.0978,-0.04288 -0.58252,-0.16605 -0.92822,-0.2359 -0.354,-0.07153 -1.5776,-0.10871 -1.9278,-0.05857 -0.47089,0.06742 -0.92225,0.15294 -0.98535,0.18671 -0.0347,0.01858 -0.0906,0.03377 -0.12402,0.03377 -0.0335,0 -0.12693,0.03015 -0.20763,0.06701 -0.0807,0.03685 -0.2431,0.10263 -0.36091,0.14616 -0.82715,0.30564 -1.7038,0.89139 -2.3405,1.5638 -0.41447,0.43773 -0.51484,0.56068 -0.76434,0.93623 -0.2175,0.32737 -0.69722,1.2709 -0.69722,1.3713 0,0.03376 -0.0175,0.09408 -0.0389,0.13405 -0.0576,0.10759 -0.1929,0.60729 -0.26909,0.99366 -0.0982,0.49808 -0.0967,1.9104 0.002,2.3833 0.0862,0.41119 0.0628,0.452 -0.17613,0.30677 -0.0921,-0.05597 -0.23426,-0.13929 -0.31593,-0.18517 -0.0817,-0.04587 -0.25292,-0.15202 -0.38055,-0.23589 -0.41908,-0.27538 -0.62023,-0.40039 -0.96391,-0.59908 -0.36745,-0.21242 -0.949095,-0.53579 -1.035305,-0.57559 -0.0294,-0.01359 -0.2142,-0.11225 -0.410549,-0.21924 -0.38857,-0.21173 -0.75053,-0.39267 -1.249497,-0.62463 -0.17672,-0.08215 -0.43376,-0.20305 -0.57121,-0.26867 -0.13744,-0.06562 -0.35347,-0.16219 -0.48006,-0.21461 -0.12659,-0.05241 -0.3756,-0.16372 -0.55336,-0.24733 -0.17775,-0.08361 -0.44368,-0.20451 -0.59094,-0.26865 -0.14727,-0.06414 -0.28382,-0.12837 -0.30346,-0.14273 -0.01963,-0.01437 -0.25258,-0.10341 -0.51765,-0.19788 -0.26508,-0.09448 -0.49722,-0.1852 -0.51587,-0.20163 -0.01866,-0.01643 -0.05639,-0.02987 -0.08385,-0.02987 -0.02746,0 -0.10056,-0.02337 -0.16244,-0.05196 -0.06187,-0.02857 -0.17676,-0.07422 -0.2553,-0.10143 -0.38805,-0.13443 -0.6969,-0.23689 -0.87461,-0.29012 -0.35769,-0.10716 -0.65682,-0.19555 -0.96391,-0.28485 -0.1669,-0.04853 -0.47214,-0.13796 -0.67831,-0.19872 -0.20617,-0.06077 -0.48731,-0.1436 -0.62476,-0.18406 -0.13745,-0.04047 -0.3222,-0.09523 -0.41055,-0.1217 -0.31578,-0.09459 -0.69868,-0.18956 -0.84944,-0.2107 -0.08431,-0.01182 -0.1807,-0.03589 -0.2142,-0.05348 -0.09416,-0.04945 -0.67689,-0.17368 -0.93557,-0.19945 -0.55043,-0.05483 -1.3974,-0.0048 -1.8386,0.10856 -1.3647,0.35074 -2.499,1.1669 -3.2198,2.3167 -0.29075,0.46382 -0.60055,1.2428 -0.68982,1.7346 -0.02317,0.12763 -0.05569,0.30435 -0.07228,0.3927 -0.05159,0.2748 -0.03897,1.1223 0.0217,1.4573 0.13225,0.73043 0.37471,1.4062 0.67475,1.8807 0.34562,0.54655 0.37385,0.58272 0.83575,1.071 0.33756,0.35684 1.0365,0.89239 1.6774,1.2852 0.08177,0.05013 1.281,0.84142 1.647,1.0868 0.54105,0.36268 0.74323,0.50688 0.79558,0.56742 0.02825,0.03266 0.12792,0.31644 0.22149,0.6306 0.21531,0.72291 0.40218,1.2943 0.57206,1.7493 0.07331,0.19635 0.17719,0.47749 0.23085,0.62476 0.14157,0.38857 0.78879,1.7709 0.89426,1.91 0.01489,0.01965 0.05893,0.09193 0.09785,0.16065 0.79218,1.3987 1.8856,2.4807 2.9294,2.8986 0.63722,0.25516 0.78355,0.28321 1.5858,0.30403 0.66187,0.01718 0.77578,0.01139 1.071,-0.05446 0.1817,-0.04053 0.3866,-0.08342 0.45532,-0.09531 0.16868,-0.02921 0.90725,-0.26133 1.1067,-0.34783 0.0884,-0.03832 0.19278,-0.08357 0.23205,-0.10056 0.0393,-0.017 0.17583,-0.07259 0.30345,-0.12355 0.310887,-0.12414 0.330847,-0.13429 1.479996,-0.75308 0.925435,-0.4983 1.613805,-0.89074 1.845805,-1.0522 0.16268,-0.11325 0.18246,-0.01555 0.0511,0.25254 -0.1193,0.24356 -0.39421,0.76832 -0.53793,1.0268 -0.16675,0.29992 -0.1594,0.48376 0.0277,0.6941 0.14351,0.1613 0.37379,0.24089 1.0067,0.34792 0.25526,0.04316 0.54444,0.09369 0.64261,0.11227 0.0981,0.01857 0.32309,0.0561 0.49981,0.08337 0.32231,0.04972 0.49518,0.10006 0.57712,0.16806 0.0342,0.02839 0.027,0.07148 -0.0327,0.19429 -0.0838,0.17247 -0.14304,0.19128 -0.38398,0.1219 -0.0686,-0.01974 -0.26128,-0.06101 -0.42818,-0.09169 -0.16689,-0.03069 -0.47213,-0.08774 -0.67831,-0.12681 -1.0209,-0.19349 -1.2967,-0.16755 -1.5267,0.14359 -0.1079,0.14594 -0.10417,0.37562 0.0123,0.75606 0.0506,0.16545 0.14626,0.5177 0.2125,0.78277 0.0662,0.26508 0.17745,0.6908 0.24716,0.94606 0.0697,0.25526 0.15237,0.56853 0.18369,0.69616 0.0313,0.12763 0.0741,0.28828 0.0951,0.357 0.021,0.06872 0.0581,0.21331 0.0824,0.3213 0.0243,0.10799 0.1118,0.43733 0.19433,0.73186 0.0825,0.29453 0.17224,0.63636 0.19936,0.75963 0.0668,0.30348 0.14856,0.44937 0.31516,0.56211 0.2716,0.18379 0.44849,0.16861 1.9125,-0.16413 0.18653,-0.0424 0.4516,-0.09865 0.58905,-0.12503 0.40776,-0.07824 0.77204,-0.15653 0.7974,-0.17137 0.0619,-0.03621 0.18497,0.0601 0.2854,0.22332 0.13665,0.22208 0.11137,0.26007 -0.21411,0.32179 -0.12435,0.02358 -0.3064,0.06547 -0.40458,0.09307 -0.18396,0.05174 -0.52721,0.12753 -0.96391,0.21284 -0.47613,0.09301 -1.0165,0.22961 -1.1398,0.28816 -0.14559,0.06909 -0.29866,0.25659 -0.3276,0.40129 -0.0402,0.20103 0.0663,0.33944 0.84867,1.1029 0.41888,0.40874 0.85924,0.83969 0.9786,0.95766 0.82689,0.81727 1.2113,1.1684 1.3456,1.2292 0.083,0.03755 0.3277,0.14274 0.54369,0.23376 0.21599,0.09101 0.42483,0.17986 0.46411,0.19745 0.0994,0.04449 0.97234,0.40672 1.1246,0.46662 0.0688,0.02704 0.24067,0.15644 0.38208,0.28754 0.33127,0.30709 0.56214,0.42091 0.85731,0.42264 0.13469,9.41e-4 0.275,-0.02254 0.357,-0.05938 z"
         fill="#4f00ff"
         style="display:inline;fill:none;fill-opacity:1;stroke:#221e7e;stroke-width:0.132294;stroke-dasharray:none;stroke-opacity:0.415314;filter:url(#filter36)" /><path
         id="path80"
         d="m 119.54646,62.758099 c 1.2756,-0.06021 1.7936,-0.10774 2.8142,-0.25824 0.77104,-0.1137 1.0962,-0.17189 1.4157,-0.25335 0.15193,-0.03873 0.34656,-0.08222 0.43251,-0.09665 0.16974,-0.02852 1.3068,-0.38533 1.3631,-0.42777 0.019,-0.01431 0.0889,-0.04133 0.15538,-0.06003 0.24709,-0.06952 0.68099,-0.23327 0.92273,-0.34822 0.13716,-0.06523 0.25887,-0.1186 0.27045,-0.1186 0.0396,0 0.51567,-0.20638 1.1031,-0.47821 0.32285,-0.1494 0.77347,-0.35634 1.0014,-0.45987 0.22789,-0.10352 0.49206,-0.24361 0.58702,-0.31129 0.095,-0.06769 0.22259,-0.1514 0.28362,-0.18603 0.0611,-0.03463 0.19312,-0.1168 0.29352,-0.18261 0.33546,-0.21991 1.4063,-0.88475 1.4251,-0.88475 0.0102,0 0.1,-0.05468 0.19943,-0.12151 0.0995,-0.06683 0.30524,-0.20231 0.45717,-0.30107 0.95074,-0.618 1.5689,-1.2227 1.9059,-1.8642 0.0481,-0.09163 0.10684,-0.18882 0.13049,-0.21599 0.0236,-0.02717 0.052,-0.07904 0.0631,-0.11526 0.011,-0.03622 0.0614,-0.16959 0.11196,-0.29638 0.0506,-0.12678 0.11268,-0.31943 0.13808,-0.4281 0.0254,-0.10867 0.0623,-0.25686 0.082,-0.32931 0.0431,-0.15878 0.0466,-1.2964 0.005,-1.4819 -0.12956,-0.57074 -0.18172,-0.72425 -0.38478,-1.1324 -0.32743,-0.65818 -0.76569,-1.1591 -1.397,-1.5967 -0.36336,-0.25187 -0.37583,-0.25856 -0.96499,-0.51749 -0.0759,-0.03339 -0.32458,-0.10811 -0.55249,-0.16604 -0.39746,-0.10104 -0.44181,-0.10539 -1.0877,-0.10663 -0.59,-0.0011 -0.71394,0.0081 -1.0014,0.07512 -0.18042,0.04203 -0.377,0.09691 -0.43685,0.12196 -0.0599,0.02504 -0.14531,0.04619 -0.18992,0.04699 -0.0446,8.2e-4 -0.14326,0.02357 -0.21923,0.05061 -0.0759,0.02704 -0.20804,0.06282 -0.2935,0.07953 -0.27513,0.05376 -0.60264,0.13609 -0.6632,0.1667 -0.0324,0.01639 -0.12564,0.03855 -0.20719,0.04927 -0.0816,0.01071 -0.20265,0.03922 -0.26911,0.06335 -0.16764,0.06086 -0.54221,0.17261 -0.70787,0.2112 -0.44781,0.10429 -0.57546,0.13744 -0.6299,0.16357 -0.0334,0.01603 -0.17725,0.0627 -0.31969,0.10374 -0.28858,0.08312 -0.41237,0.12362 -0.69127,0.22609 -0.10482,0.03852 -0.21189,0.07003 -0.23793,0.07003 -0.026,0 -0.11897,0.03124 -0.20652,0.06941 -0.25427,0.11089 -0.35937,0.15305 -0.46993,0.18852 -0.057,0.01828 -0.25898,0.09502 -0.4489,0.17054 -0.18991,0.07553 -0.50845,0.20128 -0.70786,0.27947 -0.19941,0.07818 -0.40919,0.16567 -0.46617,0.19441 -0.057,0.02874 -0.1245,0.05233 -0.15006,0.05245 -0.0255,1.09e-4 -0.0877,0.02116 -0.13811,0.04678 -0.0895,0.04547 -0.59311,0.26991 -0.83406,0.3717 -0.0664,0.02807 -0.1597,0.07008 -0.20718,0.09334 -0.60364,0.29567 -0.94052,0.46498 -1.2431,0.62478 -0.19942,0.10531 -0.45579,0.23854 -0.56975,0.29607 -0.11395,0.05753 -0.32373,0.16428 -0.46615,0.23722 -0.14245,0.07294 -0.39883,0.20268 -0.56976,0.28829 -0.17092,0.08561 -0.41598,0.22469 -0.54457,0.30906 -0.2293,0.15044 -0.29801,0.19129 -0.63498,0.37745 -0.0919,0.05078 -0.19044,0.10586 -0.21892,0.12241 -0.0285,0.01655 -0.13726,0.0772 -0.24172,0.1348 -0.34496,0.19022 -0.6469,0.42928 -0.92064,0.72893 -0.14857,0.16263 -0.30131,0.34515 -0.33945,0.4056 -0.0382,0.06045 -0.15663,0.23288 -0.26334,0.38318 -0.2886,0.4065 -0.52635,0.83152 -0.7792,1.3929 -0.26985,0.59922 -0.33993,0.80296 -0.49418,1.437 -0.0955,0.39246 -0.0973,1.104 -0.004,1.4165 0.18166,0.6058 0.49638,0.97089 1.0639,1.2342 0.18025,0.08361 0.43881,0.17949 0.57457,0.21306 1.1434,0.2827 2.236,0.34325 4.3732,0.24238 z m -10.463,17.706 c -0.0369,-0.0147 -0.13501,-0.09114 -0.21817,-0.16987 -0.20563,-0.19464 -0.32953,-0.28496 -0.44,-0.32075 -0.0511,-0.01659 -0.16665,-0.06385 -0.25665,-0.10505 -0.09,-0.04119 -0.23727,-0.10309 -0.32726,-0.13755 -0.09,-0.03446 -0.21272,-0.08343 -0.27271,-0.10882 -0.06,-0.0254 -0.26607,-0.1126 -0.45793,-0.19377 l -0.34884,-0.14759 -0.96839,-0.95452 c -0.80779,-0.79621 -0.9693,-0.96794 -0.97385,-1.0355 -0.005,-0.07182 0.007,-0.08513 0.10363,-0.118 0.06,-0.02036 0.19499,-0.05461 0.29998,-0.07607 0.105,-0.02147 0.30136,-0.06399 0.43635,-0.0945 0.13501,-0.0305 0.32523,-0.07271 0.42272,-0.09375 0.0975,-0.02103 0.28772,-0.06373 0.42271,-0.09485 0.35237,-0.08122 0.87758,-0.17191 1.4226,-0.24564 0.63561,-0.08598 2.0024,-0.09401 2.4773,-0.01455 0.11999,0.02008 0.32248,0.04428 0.44998,0.05378 0.12749,0.0095 0.26862,0.02872 0.31363,0.04268 0.045,0.01397 0.16158,0.03764 0.25908,0.05259 0.0975,0.01495 0.22636,0.03932 0.28635,0.05414 0.06,0.01483 0.23181,0.05231 0.38181,0.0833 0.15,0.03101 0.32795,0.07004 0.39545,0.08677 0.0674,0.01675 0.20249,0.04673 0.29998,0.06666 0.0975,0.01992 0.24477,0.05003 0.32727,0.06687 0.27601,0.05636 0.53149,0.14618 0.53948,0.18969 0.0101,0.05433 -1.9459,1.9755 -2.0854,2.0484 -0.0573,0.02991 -0.23576,0.10852 -0.3968,0.17474 -0.16103,0.06621 -0.31443,0.13256 -0.34089,0.14745 -0.0265,0.01489 -0.12789,0.05898 -0.22539,0.09799 -0.0975,0.03901 -0.23249,0.09566 -0.29998,0.12587 -0.0674,0.03022 -0.14728,0.06512 -0.17727,0.07757 -0.3016,0.1252 -0.38988,0.17919 -0.55736,0.34088 -0.21965,0.21206 -0.34054,0.26159 -0.4914,0.20136 z m -5.958,-5.5859 c -0.0862,-0.03117 -0.1157,-0.0922 -0.22627,-0.46824 -0.045,-0.15326 -0.10175,-0.34465 -0.12595,-0.42531 -0.0723,-0.24074 -0.17748,-0.60514 -0.22446,-0.77729 -0.0242,-0.08873 -0.0593,-0.20092 -0.0778,-0.24932 -0.0186,-0.04839 -0.0485,-0.14739 -0.0662,-0.21999 -0.0179,-0.0726 -0.0635,-0.23759 -0.10141,-0.36665 -0.038,-0.12906 -0.0826,-0.29163 -0.0992,-0.36128 -0.0166,-0.06964 -0.0386,-0.13882 -0.0489,-0.15374 -0.0268,-0.03899 -0.24433,-0.80277 -0.28623,-1.0049 -0.0374,-0.18016 -0.009,-0.27458 0.0801,-0.26405 0.0244,0.0028 0.21304,0.03364 0.4192,0.06834 0.20615,0.03469 0.46058,0.07394 0.56541,0.08721 0.10482,0.01327 0.28816,0.04438 0.40742,0.06912 0.31286,0.06493 0.95263,0.16669 1.048,0.16668 0.0448,-2e-6 0.15348,0.01966 0.24148,0.04368 0.088,0.02402 0.22101,0.04369 0.29558,0.04369 0.0745,0 0.2079,0.01913 0.2963,0.04255 0.0883,0.0234 0.28266,0.05613 0.43168,0.07274 0.14902,0.0166 0.28611,0.03863 0.30467,0.04895 0.0186,0.01032 0.26329,0.03739 0.54388,0.06016 0.2806,0.02276 0.64217,0.05755 0.80351,0.07729 0.32509,0.03978 0.21532,-0.01929 1.1493,0.61856 0.13873,0.09475 0.30358,0.2026 0.36632,0.23967 0.0627,0.03706 0.15669,0.10144 0.20878,0.14304 0.1568,0.12525 0.2328,0.10348 0.65973,-0.18903 0.21249,-0.14557 0.55752,-0.38106 0.76675,-0.5233 l 0.38043,-0.25862 0.33663,-0.04968 c 0.18514,-0.02732 0.5018,-0.06173 0.70367,-0.07647 0.20187,-0.01474 0.37787,-0.03282 0.39112,-0.04018 0.0132,-0.0074 0.19274,-0.02829 0.39889,-0.04653 0.47091,-0.04165 0.87782,-0.1039 1.5482,-0.23685 0.0897,-0.01777 0.28764,-0.05001 0.44002,-0.07164 0.15237,-0.02162 0.34305,-0.05346 0.42371,-0.07076 0.0807,-0.01731 0.33001,-0.05934 0.55408,-0.09343 0.22408,-0.0341 0.50414,-0.08108 0.62235,-0.10439 0.24281,-0.04789 0.32338,-0.03343 0.32171,0.05774 -0.002,0.08203 -0.11879,0.53503 -0.20994,0.81082 -0.024,0.0726 -0.0528,0.17819 -0.064,0.23466 -0.0112,0.05646 -0.0416,0.16866 -0.0675,0.24932 -0.0259,0.08066 -0.0771,0.24566 -0.11371,0.36665 -0.0366,0.121 -0.0868,0.28599 -0.11171,0.36665 -0.0411,0.13333 -0.0931,0.31539 -0.23464,0.82129 -0.0866,0.30966 -0.17862,0.61338 -0.21318,0.70396 -0.0185,0.04839 -0.0556,0.18039 -0.0825,0.29332 -0.098,0.41128 -0.18097,0.42674 -1.1832,0.22065 -0.61471,-0.12641 -0.88876,-0.17665 -0.9636,-0.17665 -0.0432,0 -0.18515,-0.02488 -0.31532,-0.0553 -0.47757,-0.11159 -1.212,-0.23072 -1.6545,-0.26835 -0.20616,-0.01754 -0.42617,-0.04451 -0.48891,-0.05994 -0.18946,-0.0466 -2.0869,-0.09274 -2.4251,-0.05897 -0.16303,0.0163 -0.48711,0.03807 -0.72015,0.04842 -0.23304,0.01034 -0.62905,0.05126 -0.88001,0.09091 -0.25098,0.03965 -0.60298,0.09041 -0.78225,0.1128 -0.33525,0.04187 -0.56626,0.08204 -1.0756,0.187 -0.16134,0.03325 -0.52801,0.10154 -0.81484,0.15175 -0.28682,0.05021 -0.61786,0.11658 -0.73566,0.14748 -0.24129,0.0633 -0.21753,0.06136 -0.31595,0.02578 z m 1.7148,-6.3138 c -0.0673,-0.01624 -0.26406,-0.0554 -0.43719,-0.08698 -0.17311,-0.03159 -0.37771,-0.0692 -0.45466,-0.08358 -0.43158,-0.08067 -1.2305,-0.21977 -1.5,-0.26116 -0.48769,-0.07491 -0.68281,-0.14084 -0.72258,-0.24417 -0.0268,-0.06972 -0.0193,-0.10611 0.0364,-0.17604 0.0386,-0.04848 0.0702,-0.10011 0.0702,-0.11472 0,-0.01462 0.0573,-0.12524 0.12731,-0.24582 0.29409,-0.50649 0.46726,-0.87621 0.46726,-0.99761 0,-0.20145 -0.1665,-0.4247 -0.37168,-0.49834 -0.2742,-0.09842 -0.43693,-0.10444 -0.59274,-0.02193 -0.0749,0.03967 -0.14979,0.07214 -0.16634,0.07214 -0.0166,0 -0.0719,0.02938 -0.12293,0.06526 -0.24331,0.17102 -2.233004,1.2957 -2.461004,1.391 -0.10177,0.04257 -0.24012,0.11161 -0.30744,0.15342 -0.0673,0.0418 -0.18537,0.09517 -0.26231,0.11856 -0.0769,0.0234 -0.163927,0.06315 -0.193307,0.08837 -0.0294,0.02519 -0.22494,0.10254 -0.43461,0.17184 -0.20966,0.06931 -0.42958,0.14665 -0.4887,0.17187 -0.41997,0.17918 -1.0581,0.29718 -1.7163,0.31737 -0.51687,0.01584 -0.5863,0.01045 -0.90934,-0.07065 -0.59055,-0.14828 -0.70966,-0.19204 -1.0813,-0.39726 -0.3277,-0.18098 -0.53789,-0.34634 -0.9078,-0.71417 -0.43101,-0.42859 -1.037,-1.2523 -1.3598,-1.8484 -0.06689,-0.12352 -0.15516,-0.28322 -0.19616,-0.35489 -0.04099,-0.07168 -0.17099,-0.35153 -0.28888,-0.62189 -0.11788,-0.27037 -0.24199,-0.55377 -0.2758,-0.62978 -0.0338,-0.07601 -0.07326,-0.17707 -0.08768,-0.22458 -0.01442,-0.04751 -0.06874,-0.17188 -0.12071,-0.2764 -0.05197,-0.10451 -0.15348,-0.37659 -0.22557,-0.60462 -0.07209,-0.22803 -0.14711,-0.45346 -0.16672,-0.50097 -0.01961,-0.04751 -0.07421,-0.21753 -0.12135,-0.37783 -0.09726,-0.33076 -0.09763,-0.49646 -0.0011,-0.51453 0.035,-0.0066 0.2396,0.07336 0.45467,0.17759 0.21507,0.10422 0.50122,0.23927 0.63587,0.30012 0.13465,0.06084 0.38647,0.17677 0.5596,0.25762 0.17312,0.08084 0.4092,0.18248 0.52462,0.22585 0.43642,0.16398 0.56164,0.2122 0.62954,0.24244 0.14372,0.064 0.35416,0.14552 0.48965,0.18968 0.07695,0.02507 0.22646,0.07951 0.33226,0.12097 0.31538,0.12357 0.64801,0.22278 1.2241,0.36509 0.1058,0.02614 0.27892,0.06925 0.38472,0.0958 0.34807,0.08736 1.0433,0.21416 1.4515,0.26474 0.70599,0.08749 1.1828,0.13677 1.5206,0.15718 0.20156,0.01219 0.445507,0.03681 0.542107,0.05473 0.27109,0.0503 2.999004,0.09589 3.669904,0.06134 0.55079,-0.02836 0.77241,-0.05876 1.4022,-0.19225 1.0985,-0.23285 1.8675,-0.71771 2.1869,-1.3787 0.20916,-0.43293 0.24166,-0.55167 0.286,-1.0454 0.0321,-0.3567 0.0318,-0.53533 -0.001,-0.79464 -0.0444,-0.35219 -0.1242,-0.74784 -0.18592,-0.92186 -0.0202,-0.057 -0.0825,-0.25135 -0.13838,-0.43187 -0.0559,-0.18052 -0.11608,-0.35932 -0.13376,-0.39732 -0.0177,-0.038 -0.11416,-0.2479 -0.2144,-0.46642 -0.10026,-0.21853 -0.27711,-0.56834 -0.39304,-0.77737 -0.2081,-0.3752 -0.27635,-0.48204 -0.71448,-1.1186 -0.39311,-0.57113 -0.52017,-0.84623 -0.67216,-1.4553 -0.0542,-0.21708 -0.13201,-0.75649 -0.15953,-1.1056 -0.0348,-0.4422 0.1104,-1.5048 0.26687,-1.9521 0.02,-0.05701 0.0496,-0.15677 0.0658,-0.22169 0.0162,-0.06492 0.0542,-0.16987 0.0843,-0.23321 0.0302,-0.06334 0.0769,-0.1657 0.10385,-0.22745 0.1236,-0.28319 0.38665,-0.77913 0.47161,-0.88912 0.0516,-0.06681 0.14048,-0.19055 0.19754,-0.27498 0.23199,-0.34329 1.3421,-1.3839 1.4763,-1.3839 0.0186,0 0.10298,-0.05172 0.1875,-0.11495 0.0845,-0.06321 0.23238,-0.15057 0.32855,-0.19411 0.0962,-0.04354 0.19848,-0.09297 0.22734,-0.10984 0.0289,-0.01687 0.076,-0.04022 0.10492,-0.05189 0.0289,-0.01167 0.11542,-0.04775 0.19237,-0.08019 0.0769,-0.03243 0.25793,-0.09459 0.4022,-0.1381 0.14427,-0.04351 0.30953,-0.09988 0.36724,-0.12524 0.0577,-0.02537 0.19936,-0.05586 0.31477,-0.06779 0.11542,-0.01192 0.32329,-0.04375 0.46194,-0.07075 0.28962,-0.05638 1.169,-0.06393 1.4092,-0.01211 0.0865,0.01868 0.2773,0.04897 0.42386,0.06729 0.14656,0.01834 0.31182,0.0567 0.36723,0.08525 0.0554,0.02856 0.13193,0.052 0.17004,0.05213 0.0645,1.97e-4 0.28846,0.07763 0.57776,0.19975 0.22595,0.09538 0.43676,0.19046 0.48964,0.22085 0.0289,0.01658 0.0997,0.05338 0.15738,0.08178 0.12019,0.05914 0.17616,0.09328 0.40887,0.24928 0.0921,0.06176 0.18262,0.11229 0.2011,0.11229 0.0185,0 0.0461,0.02025 0.0616,0.04498 0.0153,0.02474 0.0986,0.09859 0.18505,0.16411 0.25954,0.19682 0.55524,0.48386 0.78121,0.7583 0.11734,0.14252 0.22234,0.2669 0.23331,0.2764 0.0218,0.01881 0.27201,0.38928 0.33844,0.50097 0.0461,0.07737 0.33232,0.64887 0.4346,0.86753 0.0366,0.07809 0.0664,0.174 0.0664,0.21314 0,0.03914 0.0222,0.11517 0.0494,0.16896 0.0763,0.15123 0.19642,0.56971 0.19653,0.68516 6e-5,0.05701 0.0234,0.24358 0.0518,0.4146 0.10158,0.61074 0.0608,1.351 -0.11221,2.0384 -0.17956,0.71331 -0.28196,0.90827 -0.97999,1.8657 -0.0831,0.11401 -0.16984,0.24616 -0.19271,0.29367 -0.0229,0.04751 -0.10973,0.20423 -0.19302,0.34828 -0.15754,0.27249 -0.51342,1.0091 -0.57455,1.1892 -0.0194,0.05701 -0.0562,0.15029 -0.082,0.2073 -0.0688,0.15238 -0.19231,0.56908 -0.35346,1.192 -0.0378,0.14613 -0.0639,0.42804 -0.0748,0.80705 -0.0149,0.521 -0.008,0.61763 0.0629,0.91557 0.11368,0.47553 0.30453,0.82453 0.62811,1.1486 0.14427,0.14447 0.30337,0.28439 0.35355,0.31095 0.4536,0.23999 0.73854,0.3765 0.78588,0.3765 0.0311,0 0.10622,0.02165 0.16684,0.04813 0.11535,0.05038 0.54429,0.14837 1.107,0.25292 0.29287,0.05441 0.55402,0.06173 2.2034,0.06173 1.3497,0 1.9394,-0.01209 2.116,-0.04344 0.13465,-0.02388 0.46517,-0.05832 0.73447,-0.07652 0.47749,-0.03225 0.92106,-0.07649 1.3815,-0.13777 0.2035,-0.02708 0.49239,-0.07828 1.2766,-0.22624 0.13467,-0.02541 0.36287,-0.0797 0.50714,-0.12065 0.14428,-0.04096 0.34101,-0.09484 0.43719,-0.11976 0.4956,-0.12841 0.73625,-0.20758 1.2592,-0.41426 0.31461,-0.12433 0.58892,-0.22606 0.60958,-0.22606 0.0207,0 0.0963,-0.03109 0.16808,-0.0691 0.0718,-0.038 0.14914,-0.0691 0.17191,-0.0691 0.0393,0 0.31578,-0.12361 1.0613,-0.47453 0.72081,-0.33927 1.1749,-0.52945 1.2416,-0.52002 0.0581,0.0082 0.0695,0.03499 0.0669,0.15712 -0.002,0.08097 -0.02,0.18204 -0.0407,0.22457 -0.0207,0.04253 -0.10956,0.295 -0.19745,0.56103 -0.0878,0.26604 -0.20047,0.59253 -0.2502,0.72555 -0.0498,0.13302 -0.10292,0.28072 -0.11823,0.32822 -0.0153,0.04751 -0.0871,0.21853 -0.15957,0.38005 -0.20348,0.45359 -0.22758,0.5099 -0.22758,0.53186 0,0.01124 -0.0953,0.21101 -0.21178,0.44392 -0.37336,0.74654 -0.65285,1.2238 -0.9508,1.6237 -0.63427,0.85114 -1.1881,1.3482 -1.8993,1.7046 -0.41327,0.20712 -0.59888,0.27389 -0.97772,0.35169 -0.54855,0.11266 -1.8918,0.0583 -2.1734,-0.08795 -0.0357,-0.01858 -0.13555,-0.04532 -0.22175,-0.05945 -0.26043,-0.04265 -1.0577,-0.34658 -1.2947,-0.49353 -0.0673,-0.04176 -0.1355,-0.07597 -0.15152,-0.07603 -0.0546,-2.43e-4 -0.49502,-0.20249 -0.75782,-0.34803 -0.14427,-0.0799 -0.33313,-0.18362 -0.41969,-0.23049 -0.3109,-0.1683 -0.64895,-0.3674 -0.75196,-0.44286 -0.0578,-0.04228 -0.24657,-0.14996 -0.4197,-0.23931 -0.17311,-0.08935 -0.33838,-0.18238 -0.36723,-0.20674 -0.0289,-0.02437 -0.16107,-0.10064 -0.29381,-0.16952 -0.20968,-0.1088 -0.27301,-0.12523 -0.48264,-0.12523 -0.14326,0 -0.28145,0.02053 -0.34014,0.0505 -0.10219,0.05221 -0.21288,0.26528 -0.21193,0.40798 5.1e-4,0.09864 0.0965,0.37236 0.154,0.43981 0.041,0.04807 0.17224,0.28152 0.46277,0.82307 0.0644,0.12014 0.11718,0.24032 0.11718,0.26706 0,0.1118 -0.43589,0.2649 -0.97928,0.34395 -0.67177,0.09773 -1.0062,0.15459 -1.2089,0.20554 -0.11416,0.0287 -0.38857,0.08449 -0.60979,0.124 -0.8389,0.14981 -0.88157,0.14874 -1.0056,-0.02507 -0.0383,-0.05358 -0.22973,-0.41613 -0.42558,-0.80568 -0.19586,-0.38955 -0.37066,-0.73467 -0.38846,-0.76694 -0.0178,-0.03227 -0.26954,-0.52979 -0.55944,-1.1056 -0.28989,-0.5758 -0.5674,-1.1247 -0.61669,-1.2197 -0.0493,-0.09501 -0.19082,-0.37486 -0.31449,-0.62189 -0.12368,-0.24703 -0.25039,-0.49579 -0.28158,-0.55279 -0.16311,-0.29813 -0.46508,-0.90278 -0.46587,-0.93284 -0.002,-0.0694 -0.3073,-0.36347 -0.43027,-0.41423 -0.27782,-0.11467 -0.55623,-0.0456 -0.72386,0.17958 -0.0578,0.07759 -0.80676,1.5268 -1.6644,3.2205 -1.499,2.96 -1.5642,3.0814 -1.6827,3.1303 -0.13434,0.05545 -0.30829,0.06042 -0.49947,0.01425 z m -6.094204,-5.8895 c -1.275597,-0.06021 -1.793697,-0.10774 -2.814197,-0.25824 -0.77104,-0.1137 -1.0962,-0.17189 -1.4157,-0.25335 -0.15193,-0.03873 -0.34656,-0.08222 -0.43251,-0.09665 -0.16974,-0.02851 -1.3068,-0.38533 -1.3631,-0.42777 -0.01899,-0.01431 -0.08891,-0.04133 -0.15538,-0.06003 -0.24709,-0.06952 -0.681,-0.23327 -0.92273,-0.34822 -0.13716,-0.06523 -0.25887,-0.1186 -0.27045,-0.1186 -0.0396,0 -0.51567,-0.20639 -1.1031,-0.47821 -0.32286,-0.1494 -0.77348,-0.35634 -1.0014,-0.45987 -0.2279,-0.10352 -0.49206,-0.2436 -0.58702,-0.31129 -0.09496,-0.06768 -0.22259,-0.1514 -0.28363,-0.18603 -0.06105,-0.03463 -0.19312,-0.1168 -0.29351,-0.18261 -0.33547,-0.21991 -1.4063,-0.88475 -1.4251,-0.88475 -0.01018,0 -0.09992,-0.05468 -0.19943,-0.12151 -0.09951,-0.06682 -0.30524,-0.20231 -0.45717,-0.30107 -0.95073,-0.618 -1.5689,-1.2227 -1.9059,-1.8642 -0.04812,-0.09163 -0.10684,-0.18882 -0.13049,-0.21599 -0.02365,-0.02717 -0.05203,-0.07904 -0.06306,-0.11526 -0.01105,-0.03622 -0.06143,-0.16959 -0.11197,-0.29638 -0.05054,-0.12678 -0.11268,-0.31943 -0.13808,-0.4281 -0.02541,-0.10867 -0.06231,-0.25686 -0.08199,-0.32931 -0.04315,-0.15877 -0.04665,-1.2964 -0.0045,-1.4819 0.12956,-0.57074 0.18172,-0.72425 0.38478,-1.1324 0.32743,-0.65817 0.76569,-1.1591 1.397,-1.5967 0.36336,-0.25187 0.37583,-0.25856 0.96499,-0.51749 0.07597,-0.03339 0.32458,-0.10811 0.55248,-0.16604 0.39747,-0.10104 0.44181,-0.10539 1.0877,-0.10663 0.59,-0.0011 0.71394,0.0081 1.0014,0.07512 0.18042,0.04203 0.377,0.09692 0.43685,0.12196 0.05984,0.02505 0.14531,0.04619 0.18992,0.04699 0.04461,8.21e-4 0.14326,0.02356 0.21923,0.05061 0.07597,0.02703 0.20804,0.06282 0.29351,0.07953 0.27512,0.05376 0.60264,0.13609 0.6632,0.1667 0.03241,0.01639 0.12564,0.03855 0.20718,0.04927 0.08154,0.01071 0.20265,0.03922 0.26912,0.06335 0.16764,0.06086 0.54221,0.17261 0.70787,0.21119 0.4478,0.10429 0.57546,0.13744 0.6299,0.16357 0.03339,0.01603 0.17724,0.06271 0.31968,0.10374 0.28858,0.08312 0.41237,0.12362 0.69127,0.22609 0.10482,0.03852 0.21189,0.07003 0.23793,0.07003 0.02604,0 0.11897,0.03124 0.20652,0.06942 0.25428,0.11089 0.35938,0.15305 0.46994,0.18851 0.05698,0.01828 0.25898,0.09502 0.44889,0.17054 0.18992,0.07553 0.50846,0.20128 0.70787,0.27947 0.19942,0.07818 0.40919,0.16567 0.46616,0.19441 0.057,0.02874 0.1245,0.05233 0.15006,0.05245 0.0256,1.11e-4 0.0877,0.02116 0.13812,0.04678 0.0895,0.04547 0.59311,0.26991 0.83406,0.3717 0.0665,0.02807 0.1597,0.07008 0.20718,0.09334 0.60364,0.29567 0.940517,0.46498 1.243097,0.62478 0.19941,0.10531 0.4558,0.23854 0.56975,0.29607 0.113949,0.05753 0.323719,0.16428 0.466159,0.23723 0.14243,0.07294 0.398825,0.20268 0.569755,0.28829 0.17092,0.08561 0.41598,0.22469 0.54457,0.30906 0.22929,0.15044 0.29802,0.19129 0.63499,0.37745 0.0919,0.05078 0.19042,0.10586 0.21891,0.12241 0.0285,0.01655 0.13726,0.0772 0.24171,0.1348 0.34497,0.19022 0.64691,0.42928 0.92064,0.72893 0.14858,0.16263 0.30132,0.34515 0.33946,0.4056 0.0382,0.06044 0.15663,0.23288 0.26334,0.38318 0.28859,0.4065 0.52635,0.83152 0.77918,1.3929 0.26987,0.59922 0.33994,0.80296 0.4942,1.437 0.0955,0.39246 0.0973,1.104 0.004,1.4165 -0.18165,0.6058 -0.49639,0.97089 -1.0639,1.2342 -0.18023,0.08361 -0.43879,0.17949 -0.57456,0.21306 -1.1434,0.2827 -2.236,0.34325 -4.373204,0.24238 z"
         fill="#ffffff"
         style="fill:#000814;fill-opacity:1;stroke:none;stroke-width:0.132294;stroke-dasharray:none;stroke-opacity:1;filter:url(#filter80)"
         inkscape:label="logo_wings_glow" /><path
         id="logo_wings"
         d="m 119.54646,62.758099 c 1.2756,-0.06021 1.7936,-0.10774 2.8142,-0.25824 0.77104,-0.1137 1.0962,-0.17189 1.4157,-0.25335 0.15193,-0.03873 0.34656,-0.08222 0.43251,-0.09665 0.16974,-0.02852 1.3068,-0.38533 1.3631,-0.42777 0.019,-0.01431 0.0889,-0.04133 0.15538,-0.06003 0.24709,-0.06952 0.68099,-0.23327 0.92273,-0.34822 0.13716,-0.06523 0.25887,-0.1186 0.27045,-0.1186 0.0396,0 0.51567,-0.20638 1.1031,-0.47821 0.32285,-0.1494 0.77347,-0.35634 1.0014,-0.45987 0.22789,-0.10352 0.49206,-0.24361 0.58702,-0.31129 0.095,-0.06769 0.22259,-0.1514 0.28362,-0.18603 0.0611,-0.03463 0.19312,-0.1168 0.29352,-0.18261 0.33546,-0.21991 1.4063,-0.88475 1.4251,-0.88475 0.0102,0 0.1,-0.05468 0.19943,-0.12151 0.0995,-0.06683 0.30524,-0.20231 0.45717,-0.30107 0.95074,-0.618 1.5689,-1.2227 1.9059,-1.8642 0.0481,-0.09163 0.10684,-0.18882 0.13049,-0.21599 0.0236,-0.02717 0.052,-0.07904 0.0631,-0.11526 0.011,-0.03622 0.0614,-0.16959 0.11196,-0.29638 0.0506,-0.12678 0.11268,-0.31943 0.13808,-0.4281 0.0254,-0.10867 0.0623,-0.25686 0.082,-0.32931 0.0431,-0.15878 0.0466,-1.2964 0.005,-1.4819 -0.12956,-0.57074 -0.18172,-0.72425 -0.38478,-1.1324 -0.32743,-0.65818 -0.76569,-1.1591 -1.397,-1.5967 -0.36336,-0.25187 -0.37583,-0.25856 -0.96499,-0.51749 -0.0759,-0.03339 -0.32458,-0.10811 -0.55249,-0.16604 -0.39746,-0.10104 -0.44181,-0.10539 -1.0877,-0.10663 -0.59,-0.0011 -0.71394,0.0081 -1.0014,0.07512 -0.18042,0.04203 -0.377,0.09691 -0.43685,0.12196 -0.0599,0.02504 -0.14531,0.04619 -0.18992,0.04699 -0.0446,8.2e-4 -0.14326,0.02357 -0.21923,0.05061 -0.0759,0.02704 -0.20804,0.06282 -0.2935,0.07953 -0.27513,0.05376 -0.60264,0.13609 -0.6632,0.1667 -0.0324,0.01639 -0.12564,0.03855 -0.20719,0.04927 -0.0816,0.01071 -0.20265,0.03922 -0.26911,0.06335 -0.16764,0.06086 -0.54221,0.17261 -0.70787,0.2112 -0.44781,0.10429 -0.57546,0.13744 -0.6299,0.16357 -0.0334,0.01603 -0.17725,0.0627 -0.31969,0.10374 -0.28858,0.08312 -0.41237,0.12362 -0.69127,0.22609 -0.10482,0.03852 -0.21189,0.07003 -0.23793,0.07003 -0.026,0 -0.11897,0.03124 -0.20652,0.06941 -0.25427,0.11089 -0.35937,0.15305 -0.46993,0.18852 -0.057,0.01828 -0.25898,0.09502 -0.4489,0.17054 -0.18991,0.07553 -0.50845,0.20128 -0.70786,0.27947 -0.19941,0.07818 -0.40919,0.16567 -0.46617,0.19441 -0.057,0.02874 -0.1245,0.05233 -0.15006,0.05245 -0.0255,1.09e-4 -0.0877,0.02116 -0.13811,0.04678 -0.0895,0.04547 -0.59311,0.26991 -0.83406,0.3717 -0.0664,0.02807 -0.1597,0.07008 -0.20718,0.09334 -0.60364,0.29567 -0.94052,0.46498 -1.2431,0.62478 -0.19942,0.10531 -0.45579,0.23854 -0.56975,0.29607 -0.11395,0.05753 -0.32373,0.16428 -0.46615,0.23722 -0.14245,0.07294 -0.39883,0.20268 -0.56976,0.28829 -0.17092,0.08561 -0.41598,0.22469 -0.54457,0.30906 -0.2293,0.15044 -0.29801,0.19129 -0.63498,0.37745 -0.0919,0.05078 -0.19044,0.10586 -0.21892,0.12241 -0.0285,0.01655 -0.13726,0.0772 -0.24172,0.1348 -0.34496,0.19022 -0.6469,0.42928 -0.92064,0.72893 -0.14857,0.16263 -0.30131,0.34515 -0.33945,0.4056 -0.0382,0.06045 -0.15663,0.23288 -0.26334,0.38318 -0.2886,0.4065 -0.52635,0.83152 -0.7792,1.3929 -0.26985,0.59922 -0.33993,0.80296 -0.49418,1.437 -0.0955,0.39246 -0.0973,1.104 -0.004,1.4165 0.18166,0.6058 0.49638,0.97089 1.0639,1.2342 0.18025,0.08361 0.43881,0.17949 0.57457,0.21306 1.1434,0.2827 2.236,0.34325 4.3732,0.24238 z m -10.463,17.706 c -0.0369,-0.0147 -0.13501,-0.09114 -0.21817,-0.16987 -0.20563,-0.19464 -0.32953,-0.28496 -0.44,-0.32075 -0.0511,-0.01659 -0.16665,-0.06385 -0.25665,-0.10505 -0.09,-0.04119 -0.23727,-0.10309 -0.32726,-0.13755 -0.09,-0.03446 -0.21272,-0.08343 -0.27271,-0.10882 -0.06,-0.0254 -0.26607,-0.1126 -0.45793,-0.19377 l -0.34884,-0.14759 -0.96839,-0.95452 c -0.80779,-0.79621 -0.9693,-0.96794 -0.97385,-1.0355 -0.005,-0.07182 0.007,-0.08513 0.10363,-0.118 0.06,-0.02036 0.19499,-0.05461 0.29998,-0.07607 0.105,-0.02147 0.30136,-0.06399 0.43635,-0.0945 0.13501,-0.0305 0.32523,-0.07271 0.42272,-0.09375 0.0975,-0.02103 0.28772,-0.06373 0.42271,-0.09485 0.35237,-0.08122 0.87758,-0.17191 1.4226,-0.24564 0.63561,-0.08598 2.0024,-0.09401 2.4773,-0.01455 0.11999,0.02008 0.32248,0.04428 0.44998,0.05378 0.12749,0.0095 0.26862,0.02872 0.31363,0.04268 0.045,0.01397 0.16158,0.03764 0.25908,0.05259 0.0975,0.01495 0.22636,0.03932 0.28635,0.05414 0.06,0.01483 0.23181,0.05231 0.38181,0.0833 0.15,0.03101 0.32795,0.07004 0.39545,0.08677 0.0674,0.01675 0.20249,0.04673 0.29998,0.06666 0.0975,0.01992 0.24477,0.05003 0.32727,0.06687 0.27601,0.05636 0.53149,0.14618 0.53948,0.18969 0.0101,0.05433 -1.9459,1.9755 -2.0854,2.0484 -0.0573,0.02991 -0.23576,0.10852 -0.3968,0.17474 -0.16103,0.06621 -0.31443,0.13256 -0.34089,0.14745 -0.0265,0.01489 -0.12789,0.05898 -0.22539,0.09799 -0.0975,0.03901 -0.23249,0.09566 -0.29998,0.12587 -0.0674,0.03022 -0.14728,0.06512 -0.17727,0.07757 -0.3016,0.1252 -0.38988,0.17919 -0.55736,0.34088 -0.21965,0.21206 -0.34054,0.26159 -0.4914,0.20136 z m -5.958,-5.5859 c -0.0862,-0.03117 -0.1157,-0.0922 -0.22627,-0.46824 -0.045,-0.15326 -0.10175,-0.34465 -0.12595,-0.42531 -0.0723,-0.24074 -0.17748,-0.60514 -0.22446,-0.77729 -0.0242,-0.08873 -0.0593,-0.20092 -0.0778,-0.24932 -0.0186,-0.04839 -0.0485,-0.14739 -0.0662,-0.21999 -0.0179,-0.0726 -0.0635,-0.23759 -0.10141,-0.36665 -0.038,-0.12906 -0.0826,-0.29163 -0.0992,-0.36128 -0.0166,-0.06964 -0.0386,-0.13882 -0.0489,-0.15374 -0.0268,-0.03899 -0.24433,-0.80277 -0.28623,-1.0049 -0.0374,-0.18016 -0.009,-0.27458 0.0801,-0.26405 0.0244,0.0028 0.21304,0.03364 0.4192,0.06834 0.20615,0.03469 0.46058,0.07394 0.56541,0.08721 0.10482,0.01327 0.28816,0.04438 0.40742,0.06912 0.31286,0.06493 0.95263,0.16669 1.048,0.16668 0.0448,-2e-6 0.15348,0.01966 0.24148,0.04368 0.088,0.02402 0.22101,0.04369 0.29558,0.04369 0.0745,0 0.2079,0.01913 0.2963,0.04255 0.0883,0.0234 0.28266,0.05613 0.43168,0.07274 0.14902,0.0166 0.28611,0.03863 0.30467,0.04895 0.0186,0.01032 0.26329,0.03739 0.54388,0.06016 0.2806,0.02276 0.64217,0.05755 0.80351,0.07729 0.32509,0.03978 0.21532,-0.01929 1.1493,0.61856 0.13873,0.09475 0.30358,0.2026 0.36632,0.23967 0.0627,0.03706 0.15669,0.10144 0.20878,0.14304 0.1568,0.12525 0.2328,0.10348 0.65973,-0.18903 0.21249,-0.14557 0.55752,-0.38106 0.76675,-0.5233 l 0.38043,-0.25862 0.33663,-0.04968 c 0.18514,-0.02732 0.5018,-0.06173 0.70367,-0.07647 0.20187,-0.01474 0.37787,-0.03282 0.39112,-0.04018 0.0132,-0.0074 0.19274,-0.02829 0.39889,-0.04653 0.47091,-0.04165 0.87782,-0.1039 1.5482,-0.23685 0.0897,-0.01777 0.28764,-0.05001 0.44002,-0.07164 0.15237,-0.02162 0.34305,-0.05346 0.42371,-0.07076 0.0807,-0.01731 0.33001,-0.05934 0.55408,-0.09343 0.22408,-0.0341 0.50414,-0.08108 0.62235,-0.10439 0.24281,-0.04789 0.32338,-0.03343 0.32171,0.05774 -0.002,0.08203 -0.11879,0.53503 -0.20994,0.81082 -0.024,0.0726 -0.0528,0.17819 -0.064,0.23466 -0.0112,0.05646 -0.0416,0.16866 -0.0675,0.24932 -0.0259,0.08066 -0.0771,0.24566 -0.11371,0.36665 -0.0366,0.121 -0.0868,0.28599 -0.11171,0.36665 -0.0411,0.13333 -0.0931,0.31539 -0.23464,0.82129 -0.0866,0.30966 -0.17862,0.61338 -0.21318,0.70396 -0.0185,0.04839 -0.0556,0.18039 -0.0825,0.29332 -0.098,0.41128 -0.18097,0.42674 -1.1832,0.22065 -0.61471,-0.12641 -0.88876,-0.17665 -0.9636,-0.17665 -0.0432,0 -0.18515,-0.02488 -0.31532,-0.0553 -0.47757,-0.11159 -1.212,-0.23072 -1.6545,-0.26835 -0.20616,-0.01754 -0.42617,-0.04451 -0.48891,-0.05994 -0.18946,-0.0466 -2.0869,-0.09274 -2.4251,-0.05897 -0.16303,0.0163 -0.48711,0.03807 -0.72015,0.04842 -0.23304,0.01034 -0.62905,0.05126 -0.88001,0.09091 -0.25098,0.03965 -0.60298,0.09041 -0.78225,0.1128 -0.33525,0.04187 -0.56626,0.08204 -1.0756,0.187 -0.16134,0.03325 -0.52801,0.10154 -0.81484,0.15175 -0.28682,0.05021 -0.61786,0.11658 -0.73566,0.14748 -0.24129,0.0633 -0.21753,0.06136 -0.31595,0.02578 z m 1.7148,-6.3138 c -0.0673,-0.01624 -0.26406,-0.0554 -0.43719,-0.08698 -0.17311,-0.03159 -0.37771,-0.0692 -0.45466,-0.08358 -0.43158,-0.08067 -1.2305,-0.21977 -1.5,-0.26116 -0.48769,-0.07491 -0.68281,-0.14084 -0.72258,-0.24417 -0.0268,-0.06972 -0.0193,-0.10611 0.0364,-0.17604 0.0386,-0.04848 0.0702,-0.10011 0.0702,-0.11472 0,-0.01462 0.0573,-0.12524 0.12731,-0.24582 0.29409,-0.50649 0.46726,-0.87621 0.46726,-0.99761 0,-0.20145 -0.1665,-0.4247 -0.37168,-0.49834 -0.2742,-0.09842 -0.43693,-0.10444 -0.59274,-0.02193 -0.0749,0.03967 -0.14979,0.07214 -0.16634,0.07214 -0.0166,0 -0.0719,0.02938 -0.12293,0.06526 -0.24331,0.17102 -2.233004,1.2957 -2.461004,1.391 -0.10177,0.04257 -0.24012,0.11161 -0.30744,0.15342 -0.0673,0.0418 -0.18537,0.09517 -0.26231,0.11856 -0.0769,0.0234 -0.163927,0.06315 -0.193307,0.08837 -0.0294,0.02519 -0.22494,0.10254 -0.43461,0.17184 -0.20966,0.06931 -0.42958,0.14665 -0.4887,0.17187 -0.41997,0.17918 -1.0581,0.29718 -1.7163,0.31737 -0.51687,0.01584 -0.5863,0.01045 -0.90934,-0.07065 -0.59055,-0.14828 -0.70966,-0.19204 -1.0813,-0.39726 -0.3277,-0.18098 -0.53789,-0.34634 -0.9078,-0.71417 -0.43101,-0.42859 -1.037,-1.2523 -1.3598,-1.8484 -0.06689,-0.12352 -0.15516,-0.28322 -0.19616,-0.35489 -0.04099,-0.07168 -0.17099,-0.35153 -0.28888,-0.62189 -0.11788,-0.27037 -0.24199,-0.55377 -0.2758,-0.62978 -0.0338,-0.07601 -0.07326,-0.17707 -0.08768,-0.22458 -0.01442,-0.04751 -0.06874,-0.17188 -0.12071,-0.2764 -0.05197,-0.10451 -0.15348,-0.37659 -0.22557,-0.60462 -0.07209,-0.22803 -0.14711,-0.45346 -0.16672,-0.50097 -0.01961,-0.04751 -0.07421,-0.21753 -0.12135,-0.37783 -0.09726,-0.33076 -0.09763,-0.49646 -0.0011,-0.51453 0.035,-0.0066 0.2396,0.07336 0.45467,0.17759 0.21507,0.10422 0.50122,0.23927 0.63587,0.30012 0.13465,0.06084 0.38647,0.17677 0.5596,0.25762 0.17312,0.08084 0.4092,0.18248 0.52462,0.22585 0.43642,0.16398 0.56164,0.2122 0.62954,0.24244 0.14372,0.064 0.35416,0.14552 0.48965,0.18968 0.07695,0.02507 0.22646,0.07951 0.33226,0.12097 0.31538,0.12357 0.64801,0.22278 1.2241,0.36509 0.1058,0.02614 0.27892,0.06925 0.38472,0.0958 0.34807,0.08736 1.0433,0.21416 1.4515,0.26474 0.70599,0.08749 1.1828,0.13677 1.5206,0.15718 0.20156,0.01219 0.445507,0.03681 0.542107,0.05473 0.27109,0.0503 2.999004,0.09589 3.669904,0.06134 0.55079,-0.02836 0.77241,-0.05876 1.4022,-0.19225 1.0985,-0.23285 1.8675,-0.71771 2.1869,-1.3787 0.20916,-0.43293 0.24166,-0.55167 0.286,-1.0454 0.0321,-0.3567 0.0318,-0.53533 -0.001,-0.79464 -0.0444,-0.35219 -0.1242,-0.74784 -0.18592,-0.92186 -0.0202,-0.057 -0.0825,-0.25135 -0.13838,-0.43187 -0.0559,-0.18052 -0.11608,-0.35932 -0.13376,-0.39732 -0.0177,-0.038 -0.11416,-0.2479 -0.2144,-0.46642 -0.10026,-0.21853 -0.27711,-0.56834 -0.39304,-0.77737 -0.2081,-0.3752 -0.27635,-0.48204 -0.71448,-1.1186 -0.39311,-0.57113 -0.52017,-0.84623 -0.67216,-1.4553 -0.0542,-0.21708 -0.13201,-0.75649 -0.15953,-1.1056 -0.0348,-0.4422 0.1104,-1.5048 0.26687,-1.9521 0.02,-0.05701 0.0496,-0.15677 0.0658,-0.22169 0.0162,-0.06492 0.0542,-0.16987 0.0843,-0.23321 0.0302,-0.06334 0.0769,-0.1657 0.10385,-0.22745 0.1236,-0.28319 0.38665,-0.77913 0.47161,-0.88912 0.0516,-0.06681 0.14048,-0.19055 0.19754,-0.27498 0.23199,-0.34329 1.3421,-1.3839 1.4763,-1.3839 0.0186,0 0.10298,-0.05172 0.1875,-0.11495 0.0845,-0.06321 0.23238,-0.15057 0.32855,-0.19411 0.0962,-0.04354 0.19848,-0.09297 0.22734,-0.10984 0.0289,-0.01687 0.076,-0.04022 0.10492,-0.05189 0.0289,-0.01167 0.11542,-0.04775 0.19237,-0.08019 0.0769,-0.03243 0.25793,-0.09459 0.4022,-0.1381 0.14427,-0.04351 0.30953,-0.09988 0.36724,-0.12524 0.0577,-0.02537 0.19936,-0.05586 0.31477,-0.06779 0.11542,-0.01192 0.32329,-0.04375 0.46194,-0.07075 0.28962,-0.05638 1.169,-0.06393 1.4092,-0.01211 0.0865,0.01868 0.2773,0.04897 0.42386,0.06729 0.14656,0.01834 0.31182,0.0567 0.36723,0.08525 0.0554,0.02856 0.13193,0.052 0.17004,0.05213 0.0645,1.97e-4 0.28846,0.07763 0.57776,0.19975 0.22595,0.09538 0.43676,0.19046 0.48964,0.22085 0.0289,0.01658 0.0997,0.05338 0.15738,0.08178 0.12019,0.05914 0.17616,0.09328 0.40887,0.24928 0.0921,0.06176 0.18262,0.11229 0.2011,0.11229 0.0185,0 0.0461,0.02025 0.0616,0.04498 0.0153,0.02474 0.0986,0.09859 0.18505,0.16411 0.25954,0.19682 0.55524,0.48386 0.78121,0.7583 0.11734,0.14252 0.22234,0.2669 0.23331,0.2764 0.0218,0.01881 0.27201,0.38928 0.33844,0.50097 0.0461,0.07737 0.33232,0.64887 0.4346,0.86753 0.0366,0.07809 0.0664,0.174 0.0664,0.21314 0,0.03914 0.0222,0.11517 0.0494,0.16896 0.0763,0.15123 0.19642,0.56971 0.19653,0.68516 6e-5,0.05701 0.0234,0.24358 0.0518,0.4146 0.10158,0.61074 0.0608,1.351 -0.11221,2.0384 -0.17956,0.71331 -0.28196,0.90827 -0.97999,1.8657 -0.0831,0.11401 -0.16984,0.24616 -0.19271,0.29367 -0.0229,0.04751 -0.10973,0.20423 -0.19302,0.34828 -0.15754,0.27249 -0.51342,1.0091 -0.57455,1.1892 -0.0194,0.05701 -0.0562,0.15029 -0.082,0.2073 -0.0688,0.15238 -0.19231,0.56908 -0.35346,1.192 -0.0378,0.14613 -0.0639,0.42804 -0.0748,0.80705 -0.0149,0.521 -0.008,0.61763 0.0629,0.91557 0.11368,0.47553 0.30453,0.82453 0.62811,1.1486 0.14427,0.14447 0.30337,0.28439 0.35355,0.31095 0.4536,0.23999 0.73854,0.3765 0.78588,0.3765 0.0311,0 0.10622,0.02165 0.16684,0.04813 0.11535,0.05038 0.54429,0.14837 1.107,0.25292 0.29287,0.05441 0.55402,0.06173 2.2034,0.06173 1.3497,0 1.9394,-0.01209 2.116,-0.04344 0.13465,-0.02388 0.46517,-0.05832 0.73447,-0.07652 0.47749,-0.03225 0.92106,-0.07649 1.3815,-0.13777 0.2035,-0.02708 0.49239,-0.07828 1.2766,-0.22624 0.13467,-0.02541 0.36287,-0.0797 0.50714,-0.12065 0.14428,-0.04096 0.34101,-0.09484 0.43719,-0.11976 0.4956,-0.12841 0.73625,-0.20758 1.2592,-0.41426 0.31461,-0.12433 0.58892,-0.22606 0.60958,-0.22606 0.0207,0 0.0963,-0.03109 0.16808,-0.0691 0.0718,-0.038 0.14914,-0.0691 0.17191,-0.0691 0.0393,0 0.31578,-0.12361 1.0613,-0.47453 0.72081,-0.33927 1.1749,-0.52945 1.2416,-0.52002 0.0581,0.0082 0.0695,0.03499 0.0669,0.15712 -0.002,0.08097 -0.02,0.18204 -0.0407,0.22457 -0.0207,0.04253 -0.10956,0.295 -0.19745,0.56103 -0.0878,0.26604 -0.20047,0.59253 -0.2502,0.72555 -0.0498,0.13302 -0.10292,0.28072 -0.11823,0.32822 -0.0153,0.04751 -0.0871,0.21853 -0.15957,0.38005 -0.20348,0.45359 -0.22758,0.5099 -0.22758,0.53186 0,0.01124 -0.0953,0.21101 -0.21178,0.44392 -0.37336,0.74654 -0.65285,1.2238 -0.9508,1.6237 -0.63427,0.85114 -1.1881,1.3482 -1.8993,1.7046 -0.41327,0.20712 -0.59888,0.27389 -0.97772,0.35169 -0.54855,0.11266 -1.8918,0.0583 -2.1734,-0.08795 -0.0357,-0.01858 -0.13555,-0.04532 -0.22175,-0.05945 -0.26043,-0.04265 -1.0577,-0.34658 -1.2947,-0.49353 -0.0673,-0.04176 -0.1355,-0.07597 -0.15152,-0.07603 -0.0546,-2.43e-4 -0.49502,-0.20249 -0.75782,-0.34803 -0.14427,-0.0799 -0.33313,-0.18362 -0.41969,-0.23049 -0.3109,-0.1683 -0.64895,-0.3674 -0.75196,-0.44286 -0.0578,-0.04228 -0.24657,-0.14996 -0.4197,-0.23931 -0.17311,-0.08935 -0.33838,-0.18238 -0.36723,-0.20674 -0.0289,-0.02437 -0.16107,-0.10064 -0.29381,-0.16952 -0.20968,-0.1088 -0.27301,-0.12523 -0.48264,-0.12523 -0.14326,0 -0.28145,0.02053 -0.34014,0.0505 -0.10219,0.05221 -0.21288,0.26528 -0.21193,0.40798 5.1e-4,0.09864 0.0965,0.37236 0.154,0.43981 0.041,0.04807 0.17224,0.28152 0.46277,0.82307 0.0644,0.12014 0.11718,0.24032 0.11718,0.26706 0,0.1118 -0.43589,0.2649 -0.97928,0.34395 -0.67177,0.09773 -1.0062,0.15459 -1.2089,0.20554 -0.11416,0.0287 -0.38857,0.08449 -0.60979,0.124 -0.8389,0.14981 -0.88157,0.14874 -1.0056,-0.02507 -0.0383,-0.05358 -0.22973,-0.41613 -0.42558,-0.80568 -0.19586,-0.38955 -0.37066,-0.73467 -0.38846,-0.76694 -0.0178,-0.03227 -0.26954,-0.52979 -0.55944,-1.1056 -0.28989,-0.5758 -0.5674,-1.1247 -0.61669,-1.2197 -0.0493,-0.09501 -0.19082,-0.37486 -0.31449,-0.62189 -0.12368,-0.24703 -0.25039,-0.49579 -0.28158,-0.55279 -0.16311,-0.29813 -0.46508,-0.90278 -0.46587,-0.93284 -0.002,-0.0694 -0.3073,-0.36347 -0.43027,-0.41423 -0.27782,-0.11467 -0.55623,-0.0456 -0.72386,0.17958 -0.0578,0.07759 -0.80676,1.5268 -1.6644,3.2205 -1.499,2.96 -1.5642,3.0814 -1.6827,3.1303 -0.13434,0.05545 -0.30829,0.06042 -0.49947,0.01425 z m -6.094204,-5.8895 c -1.275597,-0.06021 -1.793697,-0.10774 -2.814197,-0.25824 -0.77104,-0.1137 -1.0962,-0.17189 -1.4157,-0.25335 -0.15193,-0.03873 -0.34656,-0.08222 -0.43251,-0.09665 -0.16974,-0.02851 -1.3068,-0.38533 -1.3631,-0.42777 -0.01899,-0.01431 -0.08891,-0.04133 -0.15538,-0.06003 -0.24709,-0.06952 -0.681,-0.23327 -0.92273,-0.34822 -0.13716,-0.06523 -0.25887,-0.1186 -0.27045,-0.1186 -0.0396,0 -0.51567,-0.20639 -1.1031,-0.47821 -0.32286,-0.1494 -0.77348,-0.35634 -1.0014,-0.45987 -0.2279,-0.10352 -0.49206,-0.2436 -0.58702,-0.31129 -0.09496,-0.06768 -0.22259,-0.1514 -0.28363,-0.18603 -0.06105,-0.03463 -0.19312,-0.1168 -0.29351,-0.18261 -0.33547,-0.21991 -1.4063,-0.88475 -1.4251,-0.88475 -0.01018,0 -0.09992,-0.05468 -0.19943,-0.12151 -0.09951,-0.06682 -0.30524,-0.20231 -0.45717,-0.30107 -0.95073,-0.618 -1.5689,-1.2227 -1.9059,-1.8642 -0.04812,-0.09163 -0.10684,-0.18882 -0.13049,-0.21599 -0.02365,-0.02717 -0.05203,-0.07904 -0.06306,-0.11526 -0.01105,-0.03622 -0.06143,-0.16959 -0.11197,-0.29638 -0.05054,-0.12678 -0.11268,-0.31943 -0.13808,-0.4281 -0.02541,-0.10867 -0.06231,-0.25686 -0.08199,-0.32931 -0.04315,-0.15877 -0.04665,-1.2964 -0.0045,-1.4819 0.12956,-0.57074 0.18172,-0.72425 0.38478,-1.1324 0.32743,-0.65817 0.76569,-1.1591 1.397,-1.5967 0.36336,-0.25187 0.37583,-0.25856 0.96499,-0.51749 0.07597,-0.03339 0.32458,-0.10811 0.55248,-0.16604 0.39747,-0.10104 0.44181,-0.10539 1.0877,-0.10663 0.59,-0.0011 0.71394,0.0081 1.0014,0.07512 0.18042,0.04203 0.377,0.09692 0.43685,0.12196 0.05984,0.02505 0.14531,0.04619 0.18992,0.04699 0.04461,8.21e-4 0.14326,0.02356 0.21923,0.05061 0.07597,0.02703 0.20804,0.06282 0.29351,0.07953 0.27512,0.05376 0.60264,0.13609 0.6632,0.1667 0.03241,0.01639 0.12564,0.03855 0.20718,0.04927 0.08154,0.01071 0.20265,0.03922 0.26912,0.06335 0.16764,0.06086 0.54221,0.17261 0.70787,0.21119 0.4478,0.10429 0.57546,0.13744 0.6299,0.16357 0.03339,0.01603 0.17724,0.06271 0.31968,0.10374 0.28858,0.08312 0.41237,0.12362 0.69127,0.22609 0.10482,0.03852 0.21189,0.07003 0.23793,0.07003 0.02604,0 0.11897,0.03124 0.20652,0.06942 0.25428,0.11089 0.35938,0.15305 0.46994,0.18851 0.05698,0.01828 0.25898,0.09502 0.44889,0.17054 0.18992,0.07553 0.50846,0.20128 0.70787,0.27947 0.19942,0.07818 0.40919,0.16567 0.46616,0.19441 0.057,0.02874 0.1245,0.05233 0.15006,0.05245 0.0256,1.11e-4 0.0877,0.02116 0.13812,0.04678 0.0895,0.04547 0.59311,0.26991 0.83406,0.3717 0.0665,0.02807 0.1597,0.07008 0.20718,0.09334 0.60364,0.29567 0.940517,0.46498 1.243097,0.62478 0.19941,0.10531 0.4558,0.23854 0.56975,0.29607 0.113949,0.05753 0.323719,0.16428 0.466159,0.23723 0.14243,0.07294 0.398825,0.20268 0.569755,0.28829 0.17092,0.08561 0.41598,0.22469 0.54457,0.30906 0.22929,0.15044 0.29802,0.19129 0.63499,0.37745 0.0919,0.05078 0.19042,0.10586 0.21891,0.12241 0.0285,0.01655 0.13726,0.0772 0.24171,0.1348 0.34497,0.19022 0.64691,0.42928 0.92064,0.72893 0.14858,0.16263 0.30132,0.34515 0.33946,0.4056 0.0382,0.06044 0.15663,0.23288 0.26334,0.38318 0.28859,0.4065 0.52635,0.83152 0.77918,1.3929 0.26987,0.59922 0.33994,0.80296 0.4942,1.437 0.0955,0.39246 0.0973,1.104 0.004,1.4165 -0.18165,0.6058 -0.49639,0.97089 -1.0639,1.2342 -0.18023,0.08361 -0.43879,0.17949 -0.57456,0.21306 -1.1434,0.2827 -2.236,0.34325 -4.373204,0.24238 z"
         fill="#ffffff"
         style="fill:url(#radialGradient4);stroke:none;stroke-width:0.132294;stroke-dasharray:none;stroke-opacity:1" /><path
         id="path81"
         d="m 108.78646,71.153099 c -0.10799,-0.06592 -0.32487,-0.2192 -0.48196,-0.34062 -0.15707,-0.12142 -0.40609,-0.30316 -0.55335,-0.40387 -0.14727,-0.1007 -0.29577,-0.20879 -0.33003,-0.24018 -0.0342,-0.03138 -0.17573,-0.14544 -0.31439,-0.25344 -0.895,-0.69702 -0.98707,-0.84166 -0.84094,-1.3209 0.0382,-0.12513 1.2027,-2.5085 1.3868,-2.8382 0.0219,-0.03928 0.25233,-0.49359 0.51203,-1.0096 0.25969,-0.51601 0.51365,-0.99258 0.56435,-1.0591 0.13354,-0.17508 0.39062,-0.25544 0.63199,-0.19754 0.0986,0.02367 0.22439,0.08091 0.27939,0.1272 0.0688,0.05784 0.4868,0.85839 1.3367,2.5597 1.1079,2.2178 1.2366,2.4933 1.2366,2.6464 0,0.26458 -0.0813,0.38794 -0.44176,0.6708 -0.17918,0.1406 -0.33383,0.26539 -0.34365,0.27732 -0.0101,0.01193 -0.12227,0.10038 -0.2499,0.19656 -0.12763,0.09618 -0.4891,0.36908 -0.80326,0.60644 -0.89243,0.67428 -0.89135,0.67364 -1.1602,0.68716 -0.21098,0.01061 -0.2499,6.28e-4 -0.42841,-0.10819 z"
         fill="#ffffff"
         style="fill:#980de5;fill-opacity:1;stroke:none;stroke-width:0.132294;stroke-dasharray:none;stroke-opacity:1;filter:url(#filter81)"
         inkscape:label="logo_diamond_glow" /><path
         id="logo_diamond"
         d="m 108.78646,71.153099 c -0.10799,-0.06592 -0.32487,-0.2192 -0.48196,-0.34062 -0.15707,-0.12142 -0.40609,-0.30316 -0.55335,-0.40387 -0.14727,-0.1007 -0.29577,-0.20879 -0.33003,-0.24018 -0.0342,-0.03138 -0.17573,-0.14544 -0.31439,-0.25344 -0.895,-0.69702 -0.98707,-0.84166 -0.84094,-1.3209 0.0382,-0.12513 1.2027,-2.5085 1.3868,-2.8382 0.0219,-0.03928 0.25233,-0.49359 0.51203,-1.0096 0.25969,-0.51601 0.51365,-0.99258 0.56435,-1.0591 0.13354,-0.17508 0.39062,-0.25544 0.63199,-0.19754 0.0986,0.02367 0.22439,0.08091 0.27939,0.1272 0.0688,0.05784 0.4868,0.85839 1.3367,2.5597 1.1079,2.2178 1.2366,2.4933 1.2366,2.6464 0,0.26458 -0.0813,0.38794 -0.44176,0.6708 -0.17918,0.1406 -0.33383,0.26539 -0.34365,0.27732 -0.0101,0.01193 -0.12227,0.10038 -0.2499,0.19656 -0.12763,0.09618 -0.4891,0.36908 -0.80326,0.60644 -0.89243,0.67428 -0.89135,0.67364 -1.1602,0.68716 -0.21098,0.01061 -0.2499,6.28e-4 -0.42841,-0.10819 z"
         fill="#ffffff"
         style="fill:url(#radialGradient9);fill-opacity:1;stroke:none;stroke-width:0.132294;stroke-dasharray:none;stroke-opacity:1" /><path
         id="logo_face"
         d="m 109.86646,58.483099 c 0.4622,-0.05717 1.1376,-0.23694 1.3872,-0.36926 0.0337,-0.01789 0.14578,-0.06636 0.24894,-0.10771 0.10318,-0.04136 0.38174,-0.20324 0.61904,-0.35977 1.1922,-0.7864 2.0107,-2.0414 2.2781,-3.4931 0.0552,-0.29958 0.0756,-1.039 0.0388,-1.3983 -0.0557,-0.54248 -0.21514,-1.1668 -0.3961,-1.5518 -0.0441,-0.09379 -0.0966,-0.2089 -0.11669,-0.2558 -0.0201,-0.0469 -0.0694,-0.13898 -0.10959,-0.20464 -0.0402,-0.06566 -0.0902,-0.15007 -0.111,-0.18758 -0.0787,-0.14131 -0.177,-0.27996 -0.35982,-0.50703 -0.1037,-0.1288 -0.20907,-0.26231 -0.23418,-0.29669 -0.0251,-0.03438 -0.20161,-0.20209 -0.39222,-0.3727 -0.4011,-0.35898 -0.3932,-0.35252 -0.50221,-0.41 -0.0457,-0.0241 -0.0908,-0.05304 -0.10016,-0.0643 -0.0442,-0.05313 -0.24645,-0.17161 -0.49455,-0.28979 -0.56601,-0.26962 -0.76813,-0.35083 -0.95179,-0.38243 -0.0733,-0.01261 -0.17306,-0.0437 -0.22169,-0.06907 -0.0487,-0.02538 -0.15431,-0.04624 -0.23483,-0.04635 -0.0805,-1.15e-4 -0.26401,-0.0245 -0.40777,-0.0542 -0.41294,-0.0853 -1.3599,-0.02121 -1.8503,0.12521 -0.12193,0.03641 -0.24764,0.06596 -0.27937,0.06569 -0.0317,-2.71e-4 -0.0664,0.01367 -0.0771,0.03099 -0.0107,0.01732 -0.0686,0.04227 -0.12855,0.05544 -0.11404,0.02505 -0.20658,0.06668 -0.65751,0.2958 -0.47308,0.24038 -0.80902,0.48316 -1.1984,0.8661 -0.35059,0.34475 -0.66034,0.69325 -0.66034,0.74294 0,0.01166 -0.0504,0.09394 -0.11196,0.18285 -0.15975,0.23065 -0.48456,0.90399 -0.57156,1.1848 -0.0407,0.13131 -0.0887,0.28479 -0.10654,0.34106 -0.018,0.05627 -0.0623,0.30184 -0.0986,0.5457 -0.15626,1.0496 -0.0228,1.9919 0.4167,2.9437 0.072,0.15586 0.13089,0.29101 0.13089,0.30032 0,0.04873 0.38512,0.61588 0.60077,0.88476 0.5837,0.72774 1.4673,1.3275 2.4006,1.6296 0.44327,0.14345 0.52003,0.16143 0.88677,0.20759 0.45251,0.05697 0.99285,0.06411 1.3651,0.01806 z"
         fill="#4f00ff"
         style="fill:#d6e6ee;fill-opacity:1;stroke:#221e7e;stroke-width:0.132294;stroke-dasharray:none;stroke-opacity:0.415686" /><path
         id="path85"
         d="m 109.86646,58.483099 c 0.4622,-0.05717 1.1376,-0.23694 1.3872,-0.36926 0.0337,-0.01789 0.14578,-0.06636 0.24894,-0.10771 0.10318,-0.04136 0.38174,-0.20324 0.61904,-0.35977 1.1922,-0.7864 2.0107,-2.0414 2.2781,-3.4931 0.0552,-0.29958 0.0756,-1.039 0.0388,-1.3983 -0.0557,-0.54248 -0.21514,-1.1668 -0.3961,-1.5518 -0.0441,-0.09379 -0.0966,-0.2089 -0.11669,-0.2558 -0.0201,-0.0469 -0.0694,-0.13898 -0.10959,-0.20464 -0.0402,-0.06566 -0.0902,-0.15007 -0.111,-0.18758 -0.0787,-0.14131 -0.177,-0.27996 -0.35982,-0.50703 -0.1037,-0.1288 -0.20907,-0.26231 -0.23418,-0.29669 -0.0251,-0.03438 -0.20161,-0.20209 -0.39222,-0.3727 -0.4011,-0.35898 -0.3932,-0.35252 -0.50221,-0.41 -0.0457,-0.0241 -0.0908,-0.05304 -0.10016,-0.0643 -0.0442,-0.05313 -0.24645,-0.17161 -0.49455,-0.28979 -0.56601,-0.26962 -0.76813,-0.35083 -0.95179,-0.38243 -0.0733,-0.01261 -0.17306,-0.0437 -0.22169,-0.06907 -0.0487,-0.02538 -0.15431,-0.04624 -0.23483,-0.04635 -0.0805,-1.15e-4 -0.26401,-0.0245 -0.40777,-0.0542 -0.41294,-0.0853 -1.3599,-0.02121 -1.8503,0.12521 -0.12193,0.03641 -0.24764,0.06596 -0.27937,0.06569 -0.0317,-2.71e-4 -0.0664,0.01367 -0.0771,0.03099 -0.0107,0.01732 -0.0686,0.04227 -0.12855,0.05544 -0.11404,0.02505 -0.20658,0.06668 -0.65751,0.2958 -0.47308,0.24038 -0.80902,0.48316 -1.1984,0.8661 -0.35059,0.34475 -0.66034,0.69325 -0.66034,0.74294 0,0.01166 -0.0504,0.09394 -0.11196,0.18285 -0.15975,0.23065 -0.48456,0.90399 -0.57156,1.1848 -0.0407,0.13131 -0.0887,0.28479 -0.10654,0.34106 -0.018,0.05627 -0.0623,0.30184 -0.0986,0.5457 -0.15626,1.0496 -0.0228,1.9919 0.4167,2.9437 0.072,0.15586 0.13089,0.29101 0.13089,0.30032 0,0.04873 0.38512,0.61588 0.60077,0.88476 0.5837,0.72774 1.4673,1.3275 2.4006,1.6296 0.44327,0.14345 0.52003,0.16143 0.88677,0.20759 0.45251,0.05697 0.99285,0.06411 1.3651,0.01806 z"
         fill="#4f00ff"
         style="opacity:1;fill:url(#radialGradient87);fill-opacity:1;stroke:#221e7e;stroke-width:0.132294;stroke-dasharray:none;stroke-opacity:0.415686"
         inkscape:label="logo_face_inner" /><path
         id="logo_eyes"
         d="m 111.66646,54.166099 c -0.27001,-0.02724 -0.5989,-0.26711 -0.76166,-0.55551 -0.28396,-0.50315 -0.28952,-1.1282 -0.0154,-1.7275 0.10183,-0.22255 0.37367,-0.5572 0.55094,-0.67822 0.23182,-0.15825 0.59133,-0.26689 0.78329,-0.2367 0.90154,0.14177 1.2736,1.2657 0.76415,2.3086 -0.27978,0.57281 -0.82455,0.93946 -1.3214,0.88934 z m -5.2658,-0.05057 c -0.33901,-0.14674 -0.42878,-0.2017 -0.57489,-0.35199 -0.15118,-0.1555 -0.32634,-0.46325 -0.48179,-0.84648 -0.0475,-0.11696 -0.0612,-0.24897 -0.0583,-0.55956 0.003,-0.36955 0.014,-0.43083 0.11547,-0.67456 0.40869,-0.98175 1.5827,-0.93208 2.155,0.09116 0.1606,0.28717 0.19193,0.38883 0.23458,0.76108 0.078,0.67994 -0.20277,1.3006 -0.69304,1.5326 -0.20906,0.09891 -0.52838,0.12079 -0.69708,0.04777 z"
         fill="#ffffff"
         style="fill:url(#linearGradient80);fill-opacity:1;fill-rule:evenodd" /></g></g></svg>
